<svg width="610" height="529" viewBox="0 0 610 529" fill="none" xmlns="http://www.w3.org/2000/svg">
<rect width="610" height="529" rx="47" fill="url(#paint0_linear_8_105)"/>
<rect x="69" y="85" width="472" height="359" rx="12" fill="#252B36"/>
<path d="M99.9031 105.288C99.3591 105.288 98.9111 105.4 98.5591 105.624C98.2071 105.848 98.0311 106.189 98.0311 106.648C98.0311 107.096 98.2071 107.443 98.5591 107.688C98.9111 107.923 99.6578 108.179 100.799 108.456C101.951 108.733 102.815 109.123 103.391 109.624C103.978 110.125 104.271 110.867 104.271 111.848C104.271 112.819 103.903 113.608 103.167 114.216C102.431 114.824 101.466 115.128 100.271 115.128C98.5218 115.128 96.9698 114.525 95.6151 113.32L96.7991 111.896C97.9298 112.877 99.1031 113.368 100.319 113.368C100.927 113.368 101.407 113.24 101.759 112.984C102.122 112.717 102.303 112.371 102.303 111.944C102.303 111.507 102.132 111.171 101.791 110.936C101.46 110.691 100.884 110.472 100.063 110.28C99.2418 110.077 98.6178 109.896 98.1911 109.736C97.7644 109.565 97.3858 109.347 97.0551 109.08C96.3938 108.579 96.0631 107.811 96.0631 106.776C96.0631 105.741 96.4364 104.947 97.1831 104.392C97.9404 103.827 98.8738 103.544 99.9831 103.544C100.698 103.544 101.407 103.661 102.111 103.896C102.815 104.131 103.423 104.461 103.935 104.888L102.927 106.312C102.596 106.013 102.148 105.768 101.583 105.576C101.018 105.384 100.458 105.288 99.9031 105.288ZM109.972 115H107.924L104.98 106.488H106.836L108.948 112.92L111.06 106.488H112.916L115.028 112.92L117.14 106.488H118.996L116.052 115H114.004L111.988 109.176L109.972 115ZM127.194 115H125.562V113.864C124.858 114.707 123.914 115.128 122.73 115.128C121.845 115.128 121.109 114.877 120.522 114.376C119.946 113.875 119.658 113.208 119.658 112.376C119.658 111.533 119.967 110.904 120.586 110.488C121.205 110.072 122.042 109.864 123.098 109.864H125.418V109.544C125.418 108.413 124.789 107.848 123.53 107.848C122.741 107.848 121.919 108.136 121.066 108.712L120.266 107.592C121.301 106.771 122.474 106.36 123.786 106.36C124.789 106.36 125.605 106.616 126.234 107.128C126.874 107.629 127.194 108.424 127.194 109.512V115ZM125.402 111.832V111.112H123.386C122.095 111.112 121.45 111.517 121.45 112.328C121.45 112.744 121.61 113.064 121.93 113.288C122.25 113.501 122.693 113.608 123.258 113.608C123.834 113.608 124.335 113.448 124.762 113.128C125.189 112.808 125.402 112.376 125.402 111.832ZM134.043 106.36C135.185 106.36 136.161 106.755 136.971 107.544C137.782 108.333 138.187 109.384 138.187 110.696C138.187 112.008 137.782 113.075 136.971 113.896C136.171 114.717 135.233 115.128 134.155 115.128C133.089 115.128 132.129 114.659 131.275 113.72V118.104H129.483V106.488H131.275V107.976C131.979 106.899 132.902 106.36 134.043 106.36ZM131.243 110.76C131.243 111.571 131.489 112.237 131.979 112.76C132.47 113.272 133.067 113.528 133.771 113.528C134.475 113.528 135.089 113.272 135.611 112.76C136.134 112.248 136.395 111.587 136.395 110.776C136.395 109.955 136.139 109.277 135.627 108.744C135.115 108.2 134.502 107.928 133.787 107.928C133.073 107.928 132.47 108.2 131.979 108.744C131.489 109.277 131.243 109.949 131.243 110.76Z" fill="#717A8C"/>
<path opacity="0.4" d="M514.769 112.751C514.584 112.466 514.322 112.181 513.982 112.001C513.71 111.868 513.536 111.649 513.38 111.393C512.885 110.576 513.177 109.502 514.002 109.018C514.973 108.476 515.283 107.27 514.72 106.33L514.07 105.208C513.516 104.268 512.303 103.936 511.342 104.487C510.487 104.943 509.39 104.638 508.895 103.831C508.74 103.565 508.652 103.28 508.672 102.995C508.701 102.624 508.584 102.273 508.41 101.988C508.05 101.399 507.4 101 506.681 101H505.313C504.604 101.019 503.953 101.399 503.594 101.988C503.41 102.273 503.303 102.624 503.322 102.995C503.342 103.28 503.254 103.565 503.099 103.831C502.604 104.638 501.507 104.943 500.662 104.487C499.691 103.936 498.487 104.268 497.924 105.208L497.274 106.33C496.72 107.27 497.031 108.476 497.992 109.018C498.818 109.502 499.109 110.576 498.623 111.393C498.458 111.649 498.284 111.868 498.012 112.001C497.682 112.181 497.39 112.466 497.235 112.751C496.876 113.34 496.895 114.081 497.254 114.699L497.924 115.839C498.284 116.447 498.953 116.827 499.652 116.827C499.983 116.827 500.371 116.732 500.682 116.542C500.924 116.381 501.216 116.323 501.536 116.323C502.497 116.323 503.303 117.112 503.322 118.053C503.322 119.145 504.215 120 505.342 120H506.662C507.779 120 508.672 119.145 508.672 118.053C508.701 117.112 509.507 116.323 510.468 116.323C510.778 116.323 511.07 116.381 511.322 116.542C511.633 116.732 512.011 116.827 512.351 116.827C513.041 116.827 513.71 116.447 514.07 115.839L514.749 114.699C515.099 114.062 515.128 113.34 514.769 112.751" fill="#8A92A6"/>
<path d="M506.012 113.188C504.487 113.188 503.254 112.001 503.254 110.509C503.254 109.018 504.487 107.821 506.012 107.821C507.536 107.821 508.74 109.018 508.74 110.509C508.74 112.001 507.536 113.188 506.012 113.188" fill="#8A92A6"/>
<rect x="77" y="132" width="456" height="99" rx="12" fill="#2B3342"/>
<rect x="94.9695" y="149" width="103.061" height="34.6889" rx="8" fill="#252B36"/>
<path d="M123.133 173.819C122.155 174.799 120.991 175.571 119.71 176.09C118.428 176.61 117.055 176.865 115.673 176.843C114.299 176.869 112.933 176.615 111.661 176.095C110.388 175.575 109.234 174.801 108.27 173.819C107.284 172.858 106.506 171.703 105.984 170.428C105.463 169.152 105.209 167.782 105.238 166.404C105.238 163.386 106.249 160.872 108.27 158.862C109.235 157.882 110.389 157.109 111.661 156.591C112.934 156.072 114.299 155.819 115.673 155.846C117.055 155.823 118.427 156.077 119.709 156.595C120.99 157.113 122.155 157.884 123.133 158.862C125.2 160.872 126.234 163.386 126.234 166.404C126.261 167.788 125.999 169.163 125.465 170.44C124.931 171.716 124.136 172.868 123.133 173.819V173.819Z" fill="#C8C8C8"/>
<path d="M115.736 159.144L111.536 166.302L115.736 164.34V159.144Z" fill="#8B8B8B"/>
<path d="M115.736 164.34L111.536 166.302L115.736 168.85V164.34Z" fill="#393939"/>
<path d="M115.736 159.144V164.34L119.932 166.302L115.736 159.144Z" fill="#343434"/>
<path d="M115.736 164.34V168.85L119.932 166.302L115.736 164.34Z" fill="#161616"/>
<path d="M111.536 167.119L115.736 173.198V169.669L111.536 167.119Z" fill="#8B8B8B"/>
<path d="M119.936 167.119L115.736 169.669V173.198L119.936 167.119Z" fill="#343434"/>
<path d="M143.546 161.972V163.302H139.078V165.517H143.091V166.775H139.078V169.015H143.69V170.344H137.665V161.972H143.546ZM148.459 163.266V170.344H147.045V163.266H144.506V161.972H150.998V163.266H148.459ZM152.32 170.344V161.972H153.733V165.601H157.89V161.972H159.303V170.344H157.89V166.919H153.733V170.344H152.32Z" fill="white"/>
<path fill-rule="evenodd" clip-rule="evenodd" d="M172.644 164.233C172.865 163.956 173.269 163.911 173.545 164.132L177.422 167.234L181.299 164.132C181.576 163.911 181.98 163.956 182.201 164.233C182.423 164.509 182.378 164.913 182.101 165.134L177.823 168.557C177.589 168.744 177.256 168.744 177.022 168.557L172.744 165.134C172.467 164.913 172.422 164.509 172.644 164.233Z" fill="#A2A8B4"/>
<path d="M473.311 162.484C472.764 163.444 472.491 164.704 472.491 166.264C472.491 167.824 472.764 169.084 473.311 170.044C473.871 171.004 474.737 171.484 475.911 171.484C477.084 171.484 477.937 171.011 478.471 170.064C479.017 169.104 479.291 167.838 479.291 166.264C479.291 164.691 479.017 163.431 478.471 162.484C477.937 161.524 477.084 161.044 475.911 161.044C474.737 161.044 473.871 161.524 473.311 162.484ZM471.631 171.544C470.684 170.224 470.211 168.464 470.211 166.264C470.211 164.064 470.684 162.311 471.631 161.004C472.577 159.684 474.004 159.024 475.911 159.024C477.817 159.024 479.244 159.684 480.191 161.004C481.137 162.311 481.611 164.064 481.611 166.264C481.611 168.464 481.137 170.224 480.191 171.544C479.244 172.851 477.817 173.504 475.911 173.504C474.004 173.504 472.577 172.851 471.631 171.544ZM484.12 173.064C483.84 172.771 483.7 172.418 483.7 172.004C483.7 171.591 483.84 171.244 484.12 170.964C484.413 170.671 484.767 170.524 485.18 170.524C485.593 170.524 485.947 170.671 486.24 170.964C486.533 171.244 486.68 171.591 486.68 172.004C486.68 172.418 486.533 172.771 486.24 173.064C485.947 173.358 485.593 173.504 485.18 173.504C484.767 173.504 484.413 173.358 484.12 173.064ZM491.845 162.484C491.299 163.444 491.025 164.704 491.025 166.264C491.025 167.824 491.299 169.084 491.845 170.044C492.405 171.004 493.272 171.484 494.445 171.484C495.619 171.484 496.472 171.011 497.005 170.064C497.552 169.104 497.825 167.838 497.825 166.264C497.825 164.691 497.552 163.431 497.005 162.484C496.472 161.524 495.619 161.044 494.445 161.044C493.272 161.044 492.405 161.524 491.845 162.484ZM490.165 171.544C489.219 170.224 488.745 168.464 488.745 166.264C488.745 164.064 489.219 162.311 490.165 161.004C491.112 159.684 492.539 159.024 494.445 159.024C496.352 159.024 497.779 159.684 498.725 161.004C499.672 162.311 500.145 164.064 500.145 166.264C500.145 168.464 499.672 170.224 498.725 171.544C497.779 172.851 496.352 173.504 494.445 173.504C492.539 173.504 491.112 172.851 490.165 171.544ZM505.41 162.484C504.863 163.444 504.59 164.704 504.59 166.264C504.59 167.824 504.863 169.084 505.41 170.044C505.97 171.004 506.836 171.484 508.01 171.484C509.183 171.484 510.036 171.011 510.57 170.064C511.116 169.104 511.39 167.838 511.39 166.264C511.39 164.691 511.116 163.431 510.57 162.484C510.036 161.524 509.183 161.044 508.01 161.044C506.836 161.044 505.97 161.524 505.41 162.484ZM503.73 171.544C502.783 170.224 502.31 168.464 502.31 166.264C502.31 164.064 502.783 162.311 503.73 161.004C504.676 159.684 506.103 159.024 508.01 159.024C509.916 159.024 511.343 159.684 512.29 161.004C513.236 162.311 513.71 164.064 513.71 166.264C513.71 168.464 513.236 170.224 512.29 171.544C511.343 172.851 509.916 173.504 508.01 173.504C506.103 173.504 504.676 172.851 503.73 171.544Z" fill="#717A8C"/>
<path d="M99.8055 209.689H96.1335V201.301H99.3975C99.9655 201.301 100.453 201.369 100.861 201.505C101.277 201.641 101.585 201.825 101.785 202.057C102.169 202.489 102.361 202.977 102.361 203.521C102.361 204.177 102.153 204.665 101.737 204.985C101.585 205.097 101.481 205.169 101.425 205.201C101.369 205.225 101.269 205.269 101.125 205.333C101.645 205.445 102.057 205.681 102.361 206.041C102.673 206.393 102.829 206.833 102.829 207.361C102.829 207.945 102.629 208.461 102.229 208.909C101.757 209.429 100.949 209.689 99.8055 209.689ZM97.5495 204.781H99.3495C100.373 204.781 100.885 204.433 100.885 203.737C100.885 203.337 100.761 203.049 100.513 202.873C100.265 202.697 99.8815 202.609 99.3615 202.609H97.5495V204.781ZM97.5495 208.381H99.7695C100.289 208.381 100.685 208.301 100.957 208.141C101.237 207.973 101.377 207.661 101.377 207.205C101.377 206.461 100.781 206.089 99.5895 206.089H97.5495V208.381ZM109.381 209.689H108.157V208.837C107.629 209.469 106.921 209.785 106.033 209.785C105.369 209.785 104.817 209.597 104.377 209.221C103.945 208.845 103.729 208.345 103.729 207.721C103.729 207.089 103.961 206.617 104.425 206.305C104.889 205.993 105.517 205.837 106.309 205.837H108.049V205.597C108.049 204.749 107.577 204.325 106.633 204.325C106.041 204.325 105.425 204.541 104.785 204.973L104.185 204.133C104.961 203.517 105.841 203.209 106.825 203.209C107.577 203.209 108.189 203.401 108.661 203.785C109.141 204.161 109.381 204.757 109.381 205.573V209.689ZM108.037 207.313V206.773H106.525C105.557 206.773 105.073 207.077 105.073 207.685C105.073 207.997 105.193 208.237 105.433 208.405C105.673 208.565 106.005 208.645 106.429 208.645C106.861 208.645 107.237 208.525 107.557 208.285C107.877 208.045 108.037 207.721 108.037 207.313ZM112.39 209.689H111.046V200.785H112.39V209.689ZM119.306 209.689H118.082V208.837C117.554 209.469 116.846 209.785 115.958 209.785C115.294 209.785 114.742 209.597 114.302 209.221C113.87 208.845 113.654 208.345 113.654 207.721C113.654 207.089 113.886 206.617 114.35 206.305C114.814 205.993 115.442 205.837 116.234 205.837H117.974V205.597C117.974 204.749 117.502 204.325 116.558 204.325C115.966 204.325 115.35 204.541 114.71 204.973L114.11 204.133C114.886 203.517 115.766 203.209 116.75 203.209C117.502 203.209 118.114 203.401 118.586 203.785C119.066 204.161 119.306 204.757 119.306 205.573V209.689ZM117.962 207.313V206.773H116.45C115.482 206.773 114.998 207.077 114.998 207.685C114.998 207.997 115.118 208.237 115.358 208.405C115.598 208.565 115.93 208.645 116.354 208.645C116.786 208.645 117.162 208.525 117.482 208.285C117.802 208.045 117.962 207.721 117.962 207.313ZM122.316 206.233V209.689H120.972V203.305H122.316V204.469C122.532 204.077 122.828 203.769 123.204 203.545C123.588 203.321 124 203.209 124.44 203.209C125.16 203.209 125.74 203.429 126.18 203.869C126.628 204.309 126.852 204.945 126.852 205.777V209.689H125.508V206.185C125.508 205.009 125.02 204.421 124.044 204.421C123.58 204.421 123.176 204.577 122.832 204.889C122.488 205.193 122.316 205.641 122.316 206.233ZM131.356 209.785C130.468 209.785 129.704 209.485 129.064 208.885C128.424 208.277 128.104 207.485 128.104 206.509C128.104 205.533 128.436 204.741 129.1 204.133C129.772 203.517 130.588 203.209 131.548 203.209C132.508 203.209 133.32 203.541 133.984 204.205L133.192 205.177C132.64 204.697 132.084 204.457 131.524 204.457C130.964 204.457 130.476 204.645 130.06 205.021C129.652 205.389 129.448 205.869 129.448 206.461C129.448 207.045 129.652 207.541 130.06 207.949C130.468 208.357 130.968 208.561 131.56 208.561C132.16 208.561 132.724 208.289 133.252 207.745L134.044 208.609C133.268 209.393 132.372 209.785 131.356 209.785ZM141.173 207.085H136.169C136.201 207.549 136.413 207.925 136.805 208.213C137.197 208.493 137.645 208.633 138.149 208.633C138.949 208.633 139.557 208.381 139.973 207.877L140.741 208.717C140.053 209.429 139.157 209.785 138.053 209.785C137.157 209.785 136.393 209.489 135.761 208.897C135.137 208.297 134.825 207.497 134.825 206.497C134.825 205.489 135.145 204.689 135.785 204.097C136.425 203.505 137.177 203.209 138.041 203.209C138.913 203.209 139.653 203.473 140.261 204.001C140.869 204.521 141.173 205.241 141.173 206.161V207.085ZM136.169 206.029H139.829C139.829 205.493 139.661 205.081 139.325 204.793C138.989 204.505 138.573 204.361 138.077 204.361C137.589 204.361 137.149 204.513 136.757 204.817C136.365 205.113 136.169 205.517 136.169 206.029ZM142.59 209.521C142.422 209.345 142.338 209.133 142.338 208.885C142.338 208.637 142.422 208.429 142.59 208.261C142.766 208.085 142.978 207.997 143.226 207.997C143.474 207.997 143.686 208.085 143.862 208.261C144.038 208.429 144.126 208.637 144.126 208.885C144.126 209.133 144.038 209.345 143.862 209.521C143.686 209.697 143.474 209.785 143.226 209.785C142.978 209.785 142.766 209.697 142.59 209.521ZM142.59 206.581C142.422 206.405 142.338 206.193 142.338 205.945C142.338 205.697 142.422 205.489 142.59 205.321C142.766 205.145 142.978 205.057 143.226 205.057C143.474 205.057 143.686 205.145 143.862 205.321C144.038 205.489 144.126 205.697 144.126 205.945C144.126 206.193 144.038 206.405 143.862 206.581C143.686 206.757 143.474 206.845 143.226 206.845C142.978 206.845 142.766 206.757 142.59 206.581Z" fill="#717A8C"/>
<path d="M166.209 205.933C166.777 205.357 167.181 204.905 167.421 204.577C167.661 204.249 167.781 203.917 167.781 203.581C167.781 203.245 167.653 202.961 167.397 202.729C167.141 202.489 166.817 202.369 166.425 202.369C165.737 202.369 165.165 202.721 164.709 203.425L163.569 202.765C163.937 202.213 164.341 201.797 164.781 201.517C165.229 201.237 165.801 201.097 166.497 201.097C167.201 201.097 167.817 201.321 168.345 201.769C168.873 202.209 169.137 202.813 169.137 203.581C169.137 204.013 169.025 204.425 168.801 204.817C168.577 205.209 168.165 205.713 167.565 206.329L165.597 208.333H169.401V209.689H163.665V208.489L166.209 205.933ZM170.875 209.521C170.707 209.345 170.623 209.133 170.623 208.885C170.623 208.637 170.707 208.429 170.875 208.261C171.051 208.085 171.263 207.997 171.511 207.997C171.759 207.997 171.971 208.085 172.147 208.261C172.323 208.429 172.411 208.637 172.411 208.885C172.411 209.133 172.323 209.345 172.147 209.521C171.971 209.697 171.759 209.785 171.511 209.785C171.263 209.785 171.051 209.697 170.875 209.521ZM174.789 201.769C175.325 201.345 175.997 201.133 176.805 201.133C177.613 201.133 178.285 201.345 178.821 201.769C179.357 202.193 179.625 202.729 179.625 203.377C179.625 204.017 179.325 204.585 178.725 205.081C179.533 205.593 179.937 206.313 179.937 207.241C179.937 207.961 179.649 208.565 179.073 209.053C178.497 209.541 177.741 209.785 176.805 209.785C175.869 209.785 175.113 209.541 174.537 209.053C173.961 208.565 173.673 207.961 173.673 207.241C173.673 206.313 174.077 205.593 174.885 205.081C174.285 204.585 173.985 204.017 173.985 203.377C173.985 202.729 174.253 202.193 174.789 201.769ZM175.629 208.213C175.997 208.445 176.389 208.561 176.805 208.561C177.221 208.561 177.613 208.445 177.981 208.213C178.349 207.973 178.533 207.633 178.533 207.193C178.533 206.753 178.357 206.413 178.005 206.173C177.653 205.933 177.253 205.813 176.805 205.813C176.357 205.813 175.957 205.933 175.605 206.173C175.253 206.413 175.077 206.753 175.077 207.193C175.077 207.633 175.261 207.973 175.629 208.213ZM175.737 204.397C176.041 204.637 176.397 204.757 176.805 204.757C177.213 204.757 177.565 204.637 177.861 204.397C178.165 204.149 178.317 203.849 178.317 203.497C178.317 203.137 178.165 202.837 177.861 202.597C177.565 202.357 177.213 202.237 176.805 202.237C176.397 202.237 176.041 202.357 175.737 202.597C175.441 202.837 175.293 203.137 175.293 203.497C175.293 203.849 175.441 204.149 175.737 204.397ZM183.604 208.513C184.348 208.513 184.896 208.261 185.248 207.757C185.6 207.253 185.78 206.573 185.788 205.717C185.588 205.941 185.3 206.153 184.924 206.353C184.548 206.545 184.132 206.641 183.676 206.641C182.924 206.641 182.292 206.393 181.78 205.897C181.276 205.393 181.024 204.729 181.024 203.905C181.024 203.073 181.296 202.405 181.84 201.901C182.392 201.397 183.084 201.145 183.916 201.145C185.26 201.145 186.188 201.745 186.7 202.945C186.988 203.633 187.132 204.409 187.132 205.273C187.132 206.137 187.04 206.857 186.856 207.433C186.672 208.009 186.42 208.465 186.1 208.801C185.476 209.457 184.708 209.785 183.796 209.785C182.892 209.785 182.072 209.501 181.336 208.933L182.044 207.889C182.228 208.049 182.472 208.193 182.776 208.321C183.088 208.449 183.364 208.513 183.604 208.513ZM183.856 205.393C184.344 205.393 184.748 205.261 185.068 204.997C185.396 204.725 185.56 204.377 185.56 203.953C185.56 203.521 185.404 203.153 185.092 202.849C184.78 202.537 184.388 202.381 183.916 202.381C183.452 202.381 183.068 202.521 182.764 202.801C182.46 203.073 182.308 203.425 182.308 203.857C182.308 204.289 182.444 204.653 182.716 204.949C182.996 205.245 183.376 205.393 183.856 205.393ZM189.436 201.769C189.972 201.345 190.644 201.133 191.452 201.133C192.26 201.133 192.932 201.345 193.468 201.769C194.004 202.193 194.272 202.729 194.272 203.377C194.272 204.017 193.972 204.585 193.372 205.081C194.18 205.593 194.584 206.313 194.584 207.241C194.584 207.961 194.296 208.565 193.72 209.053C193.144 209.541 192.388 209.785 191.452 209.785C190.516 209.785 189.76 209.541 189.184 209.053C188.608 208.565 188.32 207.961 188.32 207.241C188.32 206.313 188.724 205.593 189.532 205.081C188.932 204.585 188.632 204.017 188.632 203.377C188.632 202.729 188.9 202.193 189.436 201.769ZM190.276 208.213C190.644 208.445 191.036 208.561 191.452 208.561C191.868 208.561 192.26 208.445 192.628 208.213C192.996 207.973 193.18 207.633 193.18 207.193C193.18 206.753 193.004 206.413 192.652 206.173C192.3 205.933 191.9 205.813 191.452 205.813C191.004 205.813 190.604 205.933 190.252 206.173C189.9 206.413 189.724 206.753 189.724 207.193C189.724 207.633 189.908 207.973 190.276 208.213ZM190.384 204.397C190.688 204.637 191.044 204.757 191.452 204.757C191.86 204.757 192.212 204.637 192.508 204.397C192.812 204.149 192.964 203.849 192.964 203.497C192.964 203.137 192.812 202.837 192.508 202.597C192.212 202.357 191.86 202.237 191.452 202.237C191.044 202.237 190.688 202.357 190.384 202.597C190.088 202.837 189.94 203.137 189.94 203.497C189.94 203.849 190.088 204.149 190.384 204.397ZM198.252 208.513C198.996 208.513 199.544 208.261 199.896 207.757C200.248 207.253 200.428 206.573 200.436 205.717C200.236 205.941 199.948 206.153 199.572 206.353C199.196 206.545 198.78 206.641 198.324 206.641C197.572 206.641 196.94 206.393 196.428 205.897C195.924 205.393 195.672 204.729 195.672 203.905C195.672 203.073 195.944 202.405 196.488 201.901C197.04 201.397 197.732 201.145 198.564 201.145C199.908 201.145 200.836 201.745 201.348 202.945C201.636 203.633 201.78 204.409 201.78 205.273C201.78 206.137 201.688 206.857 201.504 207.433C201.32 208.009 201.068 208.465 200.748 208.801C200.124 209.457 199.356 209.785 198.444 209.785C197.54 209.785 196.72 209.501 195.984 208.933L196.692 207.889C196.876 208.049 197.12 208.193 197.424 208.321C197.736 208.449 198.012 208.513 198.252 208.513ZM198.504 205.393C198.992 205.393 199.396 205.261 199.716 204.997C200.044 204.725 200.208 204.377 200.208 203.953C200.208 203.521 200.052 203.153 199.74 202.849C199.428 202.537 199.036 202.381 198.564 202.381C198.1 202.381 197.716 202.521 197.412 202.801C197.108 203.073 196.956 203.425 196.956 203.857C196.956 204.289 197.092 204.653 197.364 204.949C197.644 205.245 198.024 205.393 198.504 205.393ZM212.428 201.301V202.633H207.952V204.853H211.972V206.113H207.952V208.357H212.572V209.689H206.536V201.301H212.428ZM217.35 202.597V209.689H215.934V202.597H213.39V201.301H219.894V202.597H217.35ZM221.219 209.689V201.301H222.635V204.937H226.799V201.301H228.215V209.689H226.799V206.257H222.635V209.689H221.219Z" fill="#717A8C"/>
<path d="M240.381 203.077C240.061 204.069 239.901 205.025 239.901 205.945C239.901 206.865 240.061 207.825 240.381 208.825C240.701 209.817 241.093 210.637 241.557 211.285H240.129C239.737 210.741 239.377 209.965 239.049 208.957C238.729 207.949 238.569 206.945 238.569 205.945C238.569 204.945 238.729 203.941 239.049 202.933C239.377 201.925 239.737 201.149 240.129 200.605H241.557C241.093 201.253 240.701 202.077 240.381 203.077ZM244.329 209.689H242.913V201.301H245.121L247.653 206.569L250.185 201.301H252.381V209.689H250.965V203.137L248.037 208.957H247.245L244.329 203.137V209.689ZM259.488 209.689H258.264V208.837C257.736 209.469 257.028 209.785 256.14 209.785C255.476 209.785 254.924 209.597 254.484 209.221C254.052 208.845 253.836 208.345 253.836 207.721C253.836 207.089 254.068 206.617 254.532 206.305C254.996 205.993 255.624 205.837 256.416 205.837H258.156V205.597C258.156 204.749 257.684 204.325 256.74 204.325C256.148 204.325 255.532 204.541 254.892 204.973L254.292 204.133C255.068 203.517 255.948 203.209 256.932 203.209C257.684 203.209 258.296 203.401 258.768 203.785C259.248 204.161 259.488 204.757 259.488 205.573V209.689ZM258.144 207.313V206.773H256.632C255.664 206.773 255.18 207.077 255.18 207.685C255.18 207.997 255.3 208.237 255.54 208.405C255.78 208.565 256.112 208.645 256.536 208.645C256.968 208.645 257.344 208.525 257.664 208.285C257.984 208.045 258.144 207.721 258.144 207.313ZM262.174 203.305L263.542 205.405L264.958 203.305H266.554L264.322 206.425L266.65 209.689H264.994L263.47 207.565L261.982 209.689H260.41L262.678 206.437L260.53 203.305H262.174ZM268.24 208.825C268.56 207.825 268.72 206.865 268.72 205.945C268.72 205.025 268.56 204.069 268.24 203.077C267.92 202.077 267.528 201.253 267.064 200.605H268.492C268.884 201.149 269.24 201.925 269.56 202.933C269.888 203.941 270.052 204.945 270.052 205.945C270.052 206.945 269.888 207.949 269.56 208.957C269.24 209.965 268.884 210.741 268.492 211.285H267.064C267.528 210.637 267.92 209.817 268.24 208.825Z" fill="#717A8C"/>
<path d="M444.205 202.465C444.205 203.185 444.041 203.741 443.713 204.133C443.393 204.525 442.977 204.721 442.465 204.721C442.161 204.721 441.893 204.673 441.661 204.577C441.437 204.481 441.085 204.285 440.605 203.989C440.341 203.837 440.121 203.761 439.945 203.761C439.769 203.761 439.629 203.829 439.525 203.965C439.421 204.101 439.349 204.337 439.309 204.673H438.037C438.037 203.953 438.197 203.397 438.517 203.005C438.845 202.613 439.265 202.417 439.777 202.417C440.073 202.417 440.337 202.465 440.569 202.561C440.801 202.657 441.097 202.817 441.457 203.041C441.825 203.265 442.101 203.377 442.285 203.377C442.469 203.377 442.613 203.309 442.717 203.173C442.821 203.037 442.893 202.801 442.933 202.465H444.205ZM444.205 205.153C444.205 205.873 444.041 206.429 443.713 206.821C443.393 207.213 442.977 207.409 442.465 207.409C442.161 207.409 441.893 207.361 441.661 207.265C441.437 207.169 441.085 206.973 440.605 206.677C440.341 206.525 440.121 206.449 439.945 206.449C439.769 206.449 439.629 206.517 439.525 206.653C439.421 206.789 439.349 207.025 439.309 207.361H438.037C438.037 206.641 438.197 206.085 438.517 205.693C438.845 205.301 439.265 205.105 439.777 205.105C440.073 205.105 440.337 205.153 440.569 205.249C440.801 205.345 441.097 205.505 441.457 205.729C441.825 205.953 442.101 206.065 442.285 206.065C442.469 206.065 442.613 205.997 442.717 205.861C442.821 205.725 442.893 205.489 442.933 205.153H444.205ZM448.469 210.553V209.677C447.373 209.565 446.389 209.129 445.517 208.369L446.393 207.325C447.065 207.909 447.757 208.257 448.469 208.369V206.041C447.565 205.825 446.901 205.541 446.477 205.189C446.061 204.837 445.853 204.317 445.853 203.629C445.853 202.933 446.093 202.365 446.573 201.925C447.061 201.485 447.693 201.245 448.469 201.205V200.605H449.237V201.217C450.117 201.281 450.949 201.581 451.733 202.117L450.953 203.221C450.425 202.845 449.853 202.613 449.237 202.525V204.781H449.273C450.193 204.997 450.869 205.289 451.301 205.657C451.733 206.025 451.949 206.561 451.949 207.265C451.949 207.961 451.701 208.529 451.205 208.969C450.709 209.409 450.053 209.649 449.237 209.689V210.553H448.469ZM449.237 208.405C449.621 208.365 449.925 208.253 450.149 208.069C450.373 207.885 450.485 207.653 450.485 207.373C450.485 207.093 450.397 206.873 450.221 206.713C450.045 206.545 449.717 206.389 449.237 206.245V208.405ZM448.469 202.489C448.109 202.521 447.825 202.629 447.617 202.813C447.417 202.989 447.317 203.213 447.317 203.485C447.317 203.749 447.397 203.961 447.557 204.121C447.717 204.273 448.021 204.421 448.469 204.565V202.489ZM459.633 202.417C458.889 202.417 458.341 202.669 457.989 203.173C457.637 203.677 457.457 204.357 457.449 205.213C457.649 204.989 457.937 204.781 458.313 204.589C458.689 204.389 459.105 204.289 459.561 204.289C460.313 204.289 460.941 204.541 461.445 205.045C461.957 205.541 462.213 206.205 462.213 207.037C462.213 207.861 461.937 208.525 461.385 209.029C460.841 209.533 460.153 209.785 459.321 209.785C457.977 209.785 457.049 209.185 456.537 207.985C456.249 207.297 456.105 206.521 456.105 205.657C456.105 204.793 456.197 204.073 456.381 203.497C456.565 202.921 456.817 202.465 457.137 202.129C457.761 201.473 458.525 201.145 459.429 201.145C460.341 201.145 461.165 201.429 461.901 201.997L461.193 203.041C461.009 202.881 460.761 202.737 460.449 202.609C460.145 202.481 459.873 202.417 459.633 202.417ZM459.369 205.537C458.889 205.537 458.485 205.673 458.157 205.945C457.837 206.209 457.677 206.557 457.677 206.989C457.677 207.413 457.833 207.781 458.145 208.093C458.457 208.397 458.849 208.549 459.321 208.549C459.793 208.549 460.185 208.413 460.497 208.141C460.809 207.861 460.965 207.509 460.965 207.085C460.965 206.653 460.821 206.289 460.533 205.993C460.245 205.689 459.857 205.537 459.369 205.537ZM463.173 203.713V201.301H469.077V202.561L465.525 209.689H463.965L467.433 202.585H464.457V203.713H463.173ZM472.452 205.933C473.02 205.357 473.424 204.905 473.664 204.577C473.904 204.249 474.024 203.917 474.024 203.581C474.024 203.245 473.896 202.961 473.64 202.729C473.384 202.489 473.06 202.369 472.668 202.369C471.98 202.369 471.408 202.721 470.952 203.425L469.812 202.765C470.18 202.213 470.584 201.797 471.024 201.517C471.472 201.237 472.044 201.097 472.74 201.097C473.444 201.097 474.06 201.321 474.588 201.769C475.116 202.209 475.38 202.813 475.38 203.581C475.38 204.013 475.268 204.425 475.044 204.817C474.82 205.209 474.408 205.713 473.808 206.329L471.84 208.333H475.644V209.689H469.908V208.489L472.452 205.933ZM480.321 202.417C479.577 202.417 479.029 202.669 478.677 203.173C478.325 203.677 478.145 204.357 478.137 205.213C478.337 204.989 478.625 204.781 479.001 204.589C479.377 204.389 479.793 204.289 480.249 204.289C481.001 204.289 481.629 204.541 482.133 205.045C482.645 205.541 482.901 206.205 482.901 207.037C482.901 207.861 482.625 208.525 482.073 209.029C481.529 209.533 480.841 209.785 480.009 209.785C478.665 209.785 477.737 209.185 477.225 207.985C476.937 207.297 476.793 206.521 476.793 205.657C476.793 204.793 476.885 204.073 477.069 203.497C477.253 202.921 477.505 202.465 477.825 202.129C478.449 201.473 479.213 201.145 480.117 201.145C481.029 201.145 481.853 201.429 482.589 201.997L481.881 203.041C481.697 202.881 481.449 202.737 481.137 202.609C480.833 202.481 480.561 202.417 480.321 202.417ZM480.057 205.537C479.577 205.537 479.173 205.673 478.845 205.945C478.525 206.209 478.365 206.557 478.365 206.989C478.365 207.413 478.521 207.781 478.833 208.093C479.145 208.397 479.537 208.549 480.009 208.549C480.481 208.549 480.873 208.413 481.185 208.141C481.497 207.861 481.653 207.509 481.653 207.085C481.653 206.653 481.509 206.289 481.221 205.993C480.933 205.689 480.545 205.537 480.057 205.537ZM484.353 209.521C484.185 209.345 484.101 209.133 484.101 208.885C484.101 208.637 484.185 208.429 484.353 208.261C484.529 208.085 484.741 207.997 484.989 207.997C485.237 207.997 485.449 208.085 485.625 208.261C485.801 208.429 485.889 208.637 485.889 208.885C485.889 209.133 485.801 209.345 485.625 209.521C485.449 209.697 485.237 209.785 484.989 209.785C484.741 209.785 484.529 209.697 484.353 209.521ZM489.707 205.933C490.275 205.357 490.679 204.905 490.919 204.577C491.159 204.249 491.279 203.917 491.279 203.581C491.279 203.245 491.151 202.961 490.895 202.729C490.639 202.489 490.315 202.369 489.923 202.369C489.235 202.369 488.663 202.721 488.207 203.425L487.067 202.765C487.435 202.213 487.839 201.797 488.279 201.517C488.727 201.237 489.299 201.097 489.995 201.097C490.699 201.097 491.315 201.321 491.843 201.769C492.371 202.209 492.635 202.813 492.635 203.581C492.635 204.013 492.523 204.425 492.299 204.817C492.075 205.209 491.663 205.713 491.063 206.329L489.095 208.333H492.899V209.689H487.163V208.489L489.707 205.933ZM494.253 202.561V201.301H499.161V202.405L497.133 204.673C497.901 204.697 498.501 204.941 498.933 205.405C499.365 205.861 499.581 206.409 499.581 207.049C499.581 207.905 499.289 208.577 498.705 209.065C498.129 209.553 497.385 209.797 496.473 209.797C495.561 209.797 494.669 209.505 493.797 208.921L494.397 207.781C495.085 208.261 495.805 208.501 496.557 208.501C497.045 208.501 497.445 208.389 497.757 208.165C498.077 207.933 498.237 207.605 498.237 207.181C498.237 206.749 498.061 206.405 497.709 206.149C497.357 205.893 496.869 205.765 496.245 205.765C495.933 205.765 495.633 205.809 495.345 205.897V204.817L497.289 202.561H494.253ZM502.629 203.173C502.301 203.749 502.137 204.505 502.137 205.441C502.137 206.377 502.301 207.133 502.629 207.709C502.965 208.285 503.485 208.573 504.189 208.573C504.893 208.573 505.405 208.289 505.725 207.721C506.053 207.145 506.217 206.385 506.217 205.441C506.217 204.497 506.053 203.741 505.725 203.173C505.405 202.597 504.893 202.309 504.189 202.309C503.485 202.309 502.965 202.597 502.629 203.173ZM501.621 208.609C501.053 207.817 500.769 206.761 500.769 205.441C500.769 204.121 501.053 203.069 501.621 202.285C502.189 201.493 503.045 201.097 504.189 201.097C505.333 201.097 506.189 201.493 506.757 202.285C507.325 203.069 507.609 204.121 507.609 205.441C507.609 206.761 507.325 207.817 506.757 208.609C506.189 209.393 505.333 209.785 504.189 209.785C503.045 209.785 502.189 209.393 501.621 208.609ZM508.669 203.713V201.301H514.573V202.561L511.021 209.689H509.461L512.929 202.585H509.953V203.713H508.669Z" fill="#717A8C"/>
<rect x="77" y="237" width="456" height="99" rx="12" fill="#2B3342"/>
<rect x="95" y="254" width="114.061" height="34.6889" rx="8" fill="#252B36"/>
<g clip-path="url(#clip0_8_105)">
<path d="M115.767 281.844C117.843 281.844 119.873 281.229 121.6 280.075C123.327 278.921 124.673 277.281 125.467 275.363C126.262 273.444 126.47 271.333 126.065 269.296C125.66 267.259 124.66 265.388 123.191 263.92C121.723 262.451 119.852 261.451 117.815 261.046C115.778 260.641 113.667 260.849 111.748 261.644C109.83 262.438 108.19 263.784 107.036 265.511C105.882 267.238 105.267 269.268 105.267 271.344C105.263 272.724 105.533 274.091 106.059 275.367C106.585 276.642 107.359 277.801 108.334 278.777C109.31 279.752 110.469 280.526 111.744 281.052C113.02 281.579 114.387 281.848 115.767 281.844V281.844Z" fill="#2775CA"/>
<path d="M118.654 273.007C118.654 271.48 117.736 270.95 115.898 270.732C114.585 270.557 114.323 270.207 114.323 269.595C114.323 268.983 114.76 268.588 115.635 268.588C116.423 268.588 116.86 268.85 117.079 269.507C117.103 269.57 117.145 269.625 117.2 269.663C117.256 269.702 117.322 269.722 117.389 269.722H118.089C118.13 269.723 118.17 269.716 118.207 269.701C118.245 269.686 118.279 269.663 118.308 269.634C118.337 269.606 118.359 269.571 118.374 269.534C118.389 269.496 118.396 269.456 118.395 269.415V269.372C118.311 268.898 118.072 268.465 117.716 268.141C117.36 267.816 116.907 267.618 116.427 267.578V266.528C116.427 266.353 116.295 266.222 116.077 266.178H115.42C115.245 266.178 115.115 266.309 115.071 266.528V267.538C113.754 267.717 112.923 268.588 112.923 269.682C112.923 271.126 113.798 271.695 115.636 271.913C116.86 272.132 117.259 272.391 117.259 273.094C117.259 273.798 116.647 274.276 115.815 274.276C114.677 274.276 114.288 273.799 114.152 273.138C114.14 273.064 114.102 272.997 114.045 272.949C113.988 272.9 113.916 272.873 113.841 272.872H113.094C113.053 272.871 113.013 272.878 112.976 272.893C112.938 272.908 112.904 272.931 112.875 272.959C112.847 272.988 112.824 273.022 112.809 273.06C112.794 273.097 112.787 273.138 112.787 273.178V273.222C112.963 274.316 113.663 275.103 115.107 275.322V276.372C115.107 276.547 115.238 276.678 115.456 276.722H116.113C116.288 276.722 116.419 276.591 116.462 276.372V275.322C117.775 275.103 118.65 274.184 118.65 273.003L118.654 273.007Z" fill="white"/>
<path d="M113.535 277.601C112.276 277.139 111.189 276.302 110.421 275.202C109.654 274.103 109.242 272.795 109.242 271.454C109.242 270.113 109.654 268.804 110.421 267.705C111.189 266.606 112.276 265.769 113.535 265.307C113.619 265.271 113.689 265.209 113.737 265.131C113.784 265.052 113.805 264.961 113.798 264.87V264.257C113.804 264.177 113.781 264.097 113.732 264.032C113.684 263.968 113.614 263.923 113.535 263.907C113.473 263.9 113.411 263.916 113.36 263.951C111.767 264.457 110.377 265.457 109.39 266.806C108.404 268.155 107.872 269.782 107.872 271.454C107.872 273.125 108.404 274.753 109.39 276.102C110.377 277.451 111.767 278.451 113.36 278.957C113.396 278.978 113.437 278.99 113.479 278.993C113.521 278.995 113.563 278.987 113.602 278.97C113.64 278.953 113.674 278.927 113.701 278.895C113.727 278.862 113.746 278.823 113.754 278.782C113.798 278.738 113.798 278.694 113.798 278.607V277.995C113.798 277.863 113.666 277.688 113.535 277.601ZM118.173 263.951C118.136 263.929 118.096 263.917 118.053 263.915C118.011 263.913 117.969 263.921 117.931 263.938C117.892 263.955 117.859 263.981 117.832 264.014C117.806 264.046 117.787 264.085 117.779 264.126C117.736 264.169 117.736 264.213 117.736 264.301V264.913C117.743 265.001 117.771 265.086 117.816 265.162C117.862 265.238 117.924 265.303 117.998 265.351C119.257 265.813 120.344 266.65 121.111 267.749C121.879 268.848 122.291 270.157 122.291 271.498C122.291 272.838 121.879 274.147 121.111 275.246C120.344 276.346 119.257 277.183 117.998 277.644C117.914 277.681 117.844 277.743 117.797 277.821C117.75 277.899 117.728 277.99 117.736 278.082V278.694C117.73 278.775 117.753 278.854 117.801 278.919C117.85 278.983 117.92 279.028 117.998 279.045C118.06 279.051 118.122 279.036 118.173 279.001C119.765 278.488 121.153 277.483 122.138 276.13C123.123 274.778 123.654 273.149 123.654 271.476C123.654 269.803 123.123 268.173 122.138 266.821C121.153 265.469 119.765 264.464 118.173 263.951V263.951Z" fill="white"/>
</g>
<path d="M141.277 275.416C140.207 275.416 139.364 275.109 138.749 274.494C138.134 273.879 137.827 272.969 137.827 271.763V266.96H138.713V271.727C138.713 272.717 138.937 273.448 139.384 273.919C139.831 274.39 140.462 274.626 141.277 274.626C142.099 274.626 142.734 274.39 143.181 273.919C143.628 273.448 143.852 272.717 143.852 271.727V266.96H144.714V271.763C144.714 272.969 144.407 273.879 143.792 274.494C143.185 275.109 142.347 275.416 141.277 275.416ZM149.492 275.416C148.869 275.416 148.27 275.317 147.695 275.117C147.128 274.909 146.689 274.646 146.377 274.326L146.725 273.644C147.02 273.931 147.415 274.175 147.911 274.374C148.414 274.566 148.941 274.662 149.492 274.662C150.019 274.662 150.446 274.598 150.773 274.47C151.109 274.334 151.352 274.155 151.504 273.931C151.664 273.707 151.743 273.46 151.743 273.188C151.743 272.861 151.648 272.598 151.456 272.398C151.272 272.198 151.029 272.043 150.725 271.931C150.422 271.811 150.086 271.707 149.719 271.619C149.352 271.532 148.985 271.44 148.617 271.344C148.25 271.24 147.911 271.104 147.599 270.937C147.296 270.769 147.048 270.549 146.856 270.278C146.673 269.998 146.581 269.635 146.581 269.188C146.581 268.773 146.689 268.393 146.904 268.05C147.128 267.699 147.467 267.419 147.923 267.212C148.378 266.996 148.961 266.888 149.671 266.888C150.142 266.888 150.61 266.956 151.073 267.092C151.536 267.22 151.935 267.399 152.27 267.631L151.971 268.337C151.612 268.098 151.228 267.922 150.821 267.81C150.422 267.699 150.035 267.643 149.659 267.643C149.156 267.643 148.741 267.711 148.414 267.846C148.086 267.982 147.843 268.166 147.683 268.397C147.531 268.621 147.455 268.876 147.455 269.164C147.455 269.491 147.547 269.755 147.731 269.954C147.923 270.154 148.17 270.31 148.473 270.422C148.785 270.533 149.124 270.633 149.492 270.721C149.859 270.809 150.222 270.905 150.582 271.008C150.949 271.112 151.284 271.248 151.588 271.416C151.899 271.575 152.147 271.791 152.33 272.063C152.522 272.334 152.618 272.689 152.618 273.129C152.618 273.536 152.506 273.915 152.282 274.266C152.059 274.61 151.715 274.889 151.252 275.105C150.797 275.313 150.21 275.416 149.492 275.416ZM154.344 275.344V266.96H157.757C158.652 266.96 159.434 267.14 160.105 267.499C160.784 267.85 161.311 268.341 161.686 268.972C162.061 269.603 162.249 270.33 162.249 271.152C162.249 271.975 162.061 272.701 161.686 273.332C161.311 273.963 160.784 274.458 160.105 274.817C159.434 275.169 158.652 275.344 157.757 275.344H154.344ZM155.23 274.578H157.709C158.452 274.578 159.095 274.434 159.638 274.147C160.189 273.851 160.616 273.448 160.919 272.937C161.223 272.418 161.375 271.823 161.375 271.152C161.375 270.473 161.223 269.879 160.919 269.368C160.616 268.856 160.189 268.457 159.638 268.17C159.095 267.874 158.452 267.727 157.709 267.727H155.23V274.578ZM167.675 275.416C167.044 275.416 166.462 275.313 165.927 275.105C165.392 274.889 164.928 274.59 164.537 274.207C164.146 273.823 163.838 273.372 163.615 272.853C163.399 272.334 163.291 271.767 163.291 271.152C163.291 270.537 163.399 269.97 163.615 269.451C163.838 268.932 164.146 268.481 164.537 268.098C164.936 267.715 165.404 267.419 165.939 267.212C166.474 266.996 167.056 266.888 167.687 266.888C168.294 266.888 168.865 266.992 169.4 267.2C169.935 267.399 170.386 267.703 170.754 268.11L170.191 268.673C169.847 268.321 169.468 268.07 169.053 267.918C168.638 267.759 168.19 267.679 167.711 267.679C167.208 267.679 166.741 267.767 166.31 267.942C165.879 268.11 165.503 268.353 165.184 268.673C164.865 268.984 164.613 269.352 164.429 269.775C164.254 270.19 164.166 270.649 164.166 271.152C164.166 271.655 164.254 272.118 164.429 272.542C164.613 272.957 164.865 273.324 165.184 273.644C165.503 273.955 165.879 274.199 166.31 274.374C166.741 274.542 167.208 274.626 167.711 274.626C168.19 274.626 168.638 274.546 169.053 274.386C169.468 274.227 169.847 273.971 170.191 273.62L170.754 274.183C170.386 274.59 169.935 274.897 169.4 275.105C168.865 275.313 168.29 275.416 167.675 275.416Z" fill="white"/>
<path fill-rule="evenodd" clip-rule="evenodd" d="M183.674 269.233C183.895 268.956 184.299 268.911 184.576 269.132L188.453 272.234L192.33 269.132C192.607 268.911 193.01 268.956 193.232 269.233C193.453 269.509 193.408 269.913 193.132 270.134L188.854 273.557C188.619 273.744 188.286 273.744 188.052 273.557L183.774 270.134C183.498 269.913 183.453 269.509 183.674 269.233Z" fill="#A2A8B4"/>
<path d="M473.311 267.484C472.764 268.444 472.491 269.704 472.491 271.264C472.491 272.824 472.764 274.084 473.311 275.044C473.871 276.004 474.737 276.484 475.911 276.484C477.084 276.484 477.937 276.011 478.471 275.064C479.017 274.104 479.291 272.838 479.291 271.264C479.291 269.691 479.017 268.431 478.471 267.484C477.937 266.524 477.084 266.044 475.911 266.044C474.737 266.044 473.871 266.524 473.311 267.484ZM471.631 276.544C470.684 275.224 470.211 273.464 470.211 271.264C470.211 269.064 470.684 267.311 471.631 266.004C472.577 264.684 474.004 264.024 475.911 264.024C477.817 264.024 479.244 264.684 480.191 266.004C481.137 267.311 481.611 269.064 481.611 271.264C481.611 273.464 481.137 275.224 480.191 276.544C479.244 277.851 477.817 278.504 475.911 278.504C474.004 278.504 472.577 277.851 471.631 276.544ZM484.12 278.064C483.84 277.771 483.7 277.418 483.7 277.004C483.7 276.591 483.84 276.244 484.12 275.964C484.413 275.671 484.767 275.524 485.18 275.524C485.593 275.524 485.947 275.671 486.24 275.964C486.533 276.244 486.68 276.591 486.68 277.004C486.68 277.418 486.533 277.771 486.24 278.064C485.947 278.358 485.593 278.504 485.18 278.504C484.767 278.504 484.413 278.358 484.12 278.064ZM491.845 267.484C491.299 268.444 491.025 269.704 491.025 271.264C491.025 272.824 491.299 274.084 491.845 275.044C492.405 276.004 493.272 276.484 494.445 276.484C495.619 276.484 496.472 276.011 497.005 275.064C497.552 274.104 497.825 272.838 497.825 271.264C497.825 269.691 497.552 268.431 497.005 267.484C496.472 266.524 495.619 266.044 494.445 266.044C493.272 266.044 492.405 266.524 491.845 267.484ZM490.165 276.544C489.219 275.224 488.745 273.464 488.745 271.264C488.745 269.064 489.219 267.311 490.165 266.004C491.112 264.684 492.539 264.024 494.445 264.024C496.352 264.024 497.779 264.684 498.725 266.004C499.672 267.311 500.145 269.064 500.145 271.264C500.145 273.464 499.672 275.224 498.725 276.544C497.779 277.851 496.352 278.504 494.445 278.504C492.539 278.504 491.112 277.851 490.165 276.544ZM505.41 267.484C504.863 268.444 504.59 269.704 504.59 271.264C504.59 272.824 504.863 274.084 505.41 275.044C505.97 276.004 506.836 276.484 508.01 276.484C509.183 276.484 510.036 276.011 510.57 275.064C511.116 274.104 511.39 272.838 511.39 271.264C511.39 269.691 511.116 268.431 510.57 267.484C510.036 266.524 509.183 266.044 508.01 266.044C506.836 266.044 505.97 266.524 505.41 267.484ZM503.73 276.544C502.783 275.224 502.31 273.464 502.31 271.264C502.31 269.064 502.783 267.311 503.73 266.004C504.676 264.684 506.103 264.024 508.01 264.024C509.916 264.024 511.343 264.684 512.29 266.004C513.236 267.311 513.71 269.064 513.71 271.264C513.71 273.464 513.236 275.224 512.29 276.544C511.343 277.851 509.916 278.504 508.01 278.504C506.103 278.504 504.676 277.851 503.73 276.544Z" fill="#717A8C"/>
<path d="M99.8055 314.689H96.1335V306.301H99.3975C99.9655 306.301 100.453 306.369 100.861 306.505C101.277 306.641 101.585 306.825 101.785 307.057C102.169 307.489 102.361 307.977 102.361 308.521C102.361 309.177 102.153 309.665 101.737 309.985C101.585 310.097 101.481 310.169 101.425 310.201C101.369 310.225 101.269 310.269 101.125 310.333C101.645 310.445 102.057 310.681 102.361 311.041C102.673 311.393 102.829 311.833 102.829 312.361C102.829 312.945 102.629 313.461 102.229 313.909C101.757 314.429 100.949 314.689 99.8055 314.689ZM97.5495 309.781H99.3495C100.373 309.781 100.885 309.433 100.885 308.737C100.885 308.337 100.761 308.049 100.513 307.873C100.265 307.697 99.8815 307.609 99.3615 307.609H97.5495V309.781ZM97.5495 313.381H99.7695C100.289 313.381 100.685 313.301 100.957 313.141C101.237 312.973 101.377 312.661 101.377 312.205C101.377 311.461 100.781 311.089 99.5895 311.089H97.5495V313.381ZM109.381 314.689H108.157V313.837C107.629 314.469 106.921 314.785 106.033 314.785C105.369 314.785 104.817 314.597 104.377 314.221C103.945 313.845 103.729 313.345 103.729 312.721C103.729 312.089 103.961 311.617 104.425 311.305C104.889 310.993 105.517 310.837 106.309 310.837H108.049V310.597C108.049 309.749 107.577 309.325 106.633 309.325C106.041 309.325 105.425 309.541 104.785 309.973L104.185 309.133C104.961 308.517 105.841 308.209 106.825 308.209C107.577 308.209 108.189 308.401 108.661 308.785C109.141 309.161 109.381 309.757 109.381 310.573V314.689ZM108.037 312.313V311.773H106.525C105.557 311.773 105.073 312.077 105.073 312.685C105.073 312.997 105.193 313.237 105.433 313.405C105.673 313.565 106.005 313.645 106.429 313.645C106.861 313.645 107.237 313.525 107.557 313.285C107.877 313.045 108.037 312.721 108.037 312.313ZM112.39 314.689H111.046V305.785H112.39V314.689ZM119.306 314.689H118.082V313.837C117.554 314.469 116.846 314.785 115.958 314.785C115.294 314.785 114.742 314.597 114.302 314.221C113.87 313.845 113.654 313.345 113.654 312.721C113.654 312.089 113.886 311.617 114.35 311.305C114.814 310.993 115.442 310.837 116.234 310.837H117.974V310.597C117.974 309.749 117.502 309.325 116.558 309.325C115.966 309.325 115.35 309.541 114.71 309.973L114.11 309.133C114.886 308.517 115.766 308.209 116.75 308.209C117.502 308.209 118.114 308.401 118.586 308.785C119.066 309.161 119.306 309.757 119.306 310.573V314.689ZM117.962 312.313V311.773H116.45C115.482 311.773 114.998 312.077 114.998 312.685C114.998 312.997 115.118 313.237 115.358 313.405C115.598 313.565 115.93 313.645 116.354 313.645C116.786 313.645 117.162 313.525 117.482 313.285C117.802 313.045 117.962 312.721 117.962 312.313ZM122.316 311.233V314.689H120.972V308.305H122.316V309.469C122.532 309.077 122.828 308.769 123.204 308.545C123.588 308.321 124 308.209 124.44 308.209C125.16 308.209 125.74 308.429 126.18 308.869C126.628 309.309 126.852 309.945 126.852 310.777V314.689H125.508V311.185C125.508 310.009 125.02 309.421 124.044 309.421C123.58 309.421 123.176 309.577 122.832 309.889C122.488 310.193 122.316 310.641 122.316 311.233ZM131.356 314.785C130.468 314.785 129.704 314.485 129.064 313.885C128.424 313.277 128.104 312.485 128.104 311.509C128.104 310.533 128.436 309.741 129.1 309.133C129.772 308.517 130.588 308.209 131.548 308.209C132.508 308.209 133.32 308.541 133.984 309.205L133.192 310.177C132.64 309.697 132.084 309.457 131.524 309.457C130.964 309.457 130.476 309.645 130.06 310.021C129.652 310.389 129.448 310.869 129.448 311.461C129.448 312.045 129.652 312.541 130.06 312.949C130.468 313.357 130.968 313.561 131.56 313.561C132.16 313.561 132.724 313.289 133.252 312.745L134.044 313.609C133.268 314.393 132.372 314.785 131.356 314.785ZM141.173 312.085H136.169C136.201 312.549 136.413 312.925 136.805 313.213C137.197 313.493 137.645 313.633 138.149 313.633C138.949 313.633 139.557 313.381 139.973 312.877L140.741 313.717C140.053 314.429 139.157 314.785 138.053 314.785C137.157 314.785 136.393 314.489 135.761 313.897C135.137 313.297 134.825 312.497 134.825 311.497C134.825 310.489 135.145 309.689 135.785 309.097C136.425 308.505 137.177 308.209 138.041 308.209C138.913 308.209 139.653 308.473 140.261 309.001C140.869 309.521 141.173 310.241 141.173 311.161V312.085ZM136.169 311.029H139.829C139.829 310.493 139.661 310.081 139.325 309.793C138.989 309.505 138.573 309.361 138.077 309.361C137.589 309.361 137.149 309.513 136.757 309.817C136.365 310.113 136.169 310.517 136.169 311.029ZM142.59 314.521C142.422 314.345 142.338 314.133 142.338 313.885C142.338 313.637 142.422 313.429 142.59 313.261C142.766 313.085 142.978 312.997 143.226 312.997C143.474 312.997 143.686 313.085 143.862 313.261C144.038 313.429 144.126 313.637 144.126 313.885C144.126 314.133 144.038 314.345 143.862 314.521C143.686 314.697 143.474 314.785 143.226 314.785C142.978 314.785 142.766 314.697 142.59 314.521ZM142.59 311.581C142.422 311.405 142.338 311.193 142.338 310.945C142.338 310.697 142.422 310.489 142.59 310.321C142.766 310.145 142.978 310.057 143.226 310.057C143.474 310.057 143.686 310.145 143.862 310.321C144.038 310.489 144.126 310.697 144.126 310.945C144.126 311.193 144.038 311.405 143.862 311.581C143.686 311.757 143.474 311.845 143.226 311.845C142.978 311.845 142.766 311.757 142.59 311.581Z" fill="#717A8C"/>
<path d="M154.449 312.481V311.857L158.901 306.289H159.861L155.445 311.857L154.977 311.713H161.733V312.481H154.449ZM159.189 314.689V312.481L159.213 311.713V309.769H160.053V314.689H159.189ZM165.67 314.761C165.022 314.761 164.446 314.593 163.942 314.257C163.438 313.913 163.042 313.425 162.754 312.793C162.466 312.153 162.322 311.385 162.322 310.489C162.322 309.593 162.466 308.829 162.754 308.197C163.042 307.557 163.438 307.069 163.942 306.733C164.446 306.389 165.022 306.217 165.67 306.217C166.318 306.217 166.894 306.389 167.398 306.733C167.902 307.069 168.298 307.557 168.586 308.197C168.882 308.829 169.03 309.593 169.03 310.489C169.03 311.385 168.882 312.153 168.586 312.793C168.298 313.425 167.902 313.913 167.398 314.257C166.894 314.593 166.318 314.761 165.67 314.761ZM165.67 313.969C166.166 313.969 166.598 313.837 166.966 313.573C167.334 313.301 167.622 312.909 167.83 312.397C168.038 311.877 168.142 311.241 168.142 310.489C168.142 309.737 168.038 309.105 167.83 308.593C167.622 308.073 167.334 307.681 166.966 307.417C166.598 307.145 166.166 307.009 165.67 307.009C165.19 307.009 164.762 307.145 164.386 307.417C164.01 307.681 163.718 308.073 163.51 308.593C163.302 309.105 163.198 309.737 163.198 310.489C163.198 311.241 163.302 311.877 163.51 312.397C163.718 312.909 164.01 313.301 164.386 313.573C164.762 313.837 165.19 313.969 165.67 313.969ZM173.41 314.761C172.762 314.761 172.186 314.593 171.682 314.257C171.178 313.913 170.782 313.425 170.494 312.793C170.206 312.153 170.062 311.385 170.062 310.489C170.062 309.593 170.206 308.829 170.494 308.197C170.782 307.557 171.178 307.069 171.682 306.733C172.186 306.389 172.762 306.217 173.41 306.217C174.058 306.217 174.634 306.389 175.138 306.733C175.642 307.069 176.038 307.557 176.326 308.197C176.622 308.829 176.77 309.593 176.77 310.489C176.77 311.385 176.622 312.153 176.326 312.793C176.038 313.425 175.642 313.913 175.138 314.257C174.634 314.593 174.058 314.761 173.41 314.761ZM173.41 313.969C173.906 313.969 174.338 313.837 174.706 313.573C175.074 313.301 175.362 312.909 175.57 312.397C175.778 311.877 175.882 311.241 175.882 310.489C175.882 309.737 175.778 309.105 175.57 308.593C175.362 308.073 175.074 307.681 174.706 307.417C174.338 307.145 173.906 307.009 173.41 307.009C172.93 307.009 172.502 307.145 172.126 307.417C171.75 307.681 171.458 308.073 171.25 308.593C171.042 309.105 170.938 309.737 170.938 310.489C170.938 311.241 171.042 311.877 171.25 312.397C171.458 312.909 171.75 313.301 172.126 313.573C172.502 313.837 172.93 313.969 173.41 313.969ZM178.321 314.749C178.145 314.749 177.993 314.685 177.865 314.557C177.745 314.429 177.685 314.273 177.685 314.089C177.685 313.897 177.745 313.741 177.865 313.621C177.993 313.501 178.145 313.441 178.321 313.441C178.497 313.441 178.645 313.501 178.765 313.621C178.893 313.741 178.957 313.897 178.957 314.089C178.957 314.273 178.893 314.429 178.765 314.557C178.645 314.685 178.497 314.749 178.321 314.749ZM183.32 314.761C182.648 314.761 182.068 314.665 181.58 314.473C181.1 314.281 180.728 314.005 180.464 313.645C180.208 313.277 180.08 312.845 180.08 312.349C180.08 311.869 180.204 311.461 180.452 311.125C180.708 310.781 181.076 310.517 181.556 310.333C182.044 310.149 182.632 310.057 183.32 310.057C184 310.057 184.584 310.149 185.072 310.333C185.56 310.517 185.932 310.781 186.188 311.125C186.452 311.461 186.584 311.869 186.584 312.349C186.584 312.845 186.452 313.277 186.188 313.645C185.924 314.005 185.548 314.281 185.06 314.473C184.572 314.665 183.992 314.761 183.32 314.761ZM183.32 314.029C184.064 314.029 184.644 313.877 185.06 313.573C185.484 313.269 185.696 312.857 185.696 312.337C185.696 311.817 185.484 311.409 185.06 311.113C184.644 310.809 184.064 310.657 183.32 310.657C182.576 310.657 181.996 310.809 181.58 311.113C181.164 311.409 180.956 311.817 180.956 312.337C180.956 312.857 181.164 313.269 181.58 313.573C181.996 313.877 182.576 314.029 183.32 314.029ZM183.32 310.549C182.696 310.549 182.164 310.465 181.724 310.297C181.292 310.129 180.96 309.889 180.728 309.577C180.496 309.257 180.38 308.877 180.38 308.437C180.38 307.973 180.5 307.577 180.74 307.249C180.988 306.913 181.332 306.657 181.772 306.481C182.212 306.305 182.728 306.217 183.32 306.217C183.912 306.217 184.428 306.305 184.868 306.481C185.316 306.657 185.664 306.913 185.912 307.249C186.16 307.577 186.284 307.973 186.284 308.437C186.284 308.877 186.168 309.257 185.936 309.577C185.704 309.889 185.364 310.129 184.916 310.297C184.476 310.465 183.944 310.549 183.32 310.549ZM183.32 309.973C183.976 309.973 184.488 309.837 184.856 309.565C185.224 309.293 185.408 308.929 185.408 308.473C185.408 307.993 185.216 307.621 184.832 307.357C184.456 307.085 183.952 306.949 183.32 306.949C182.688 306.949 182.184 307.085 181.808 307.357C181.432 307.621 181.244 307.989 181.244 308.461C181.244 308.925 181.424 309.293 181.784 309.565C182.152 309.837 182.664 309.973 183.32 309.973ZM190.191 306.217C190.935 306.217 191.563 306.385 192.075 306.721C192.587 307.049 192.975 307.525 193.239 308.149C193.503 308.773 193.635 309.529 193.635 310.417C193.635 311.361 193.471 312.157 193.143 312.805C192.823 313.453 192.375 313.941 191.799 314.269C191.223 314.597 190.555 314.761 189.795 314.761C189.419 314.761 189.059 314.725 188.715 314.653C188.379 314.581 188.075 314.465 187.803 314.305L188.151 313.609C188.367 313.753 188.615 313.857 188.895 313.921C189.183 313.977 189.479 314.005 189.783 314.005C190.687 314.005 191.407 313.717 191.943 313.141C192.487 312.565 192.759 311.705 192.759 310.561C192.759 310.377 192.747 310.157 192.723 309.901C192.707 309.645 192.663 309.389 192.591 309.133L192.891 309.361C192.811 309.777 192.639 310.133 192.375 310.429C192.119 310.717 191.799 310.937 191.415 311.089C191.039 311.241 190.619 311.317 190.155 311.317C189.603 311.317 189.111 311.213 188.679 311.005C188.255 310.797 187.923 310.505 187.683 310.129C187.443 309.753 187.323 309.309 187.323 308.797C187.323 308.269 187.447 307.813 187.695 307.429C187.943 307.045 188.283 306.749 188.715 306.541C189.155 306.325 189.647 306.217 190.191 306.217ZM190.227 306.949C189.827 306.949 189.471 307.025 189.159 307.177C188.855 307.321 188.615 307.529 188.439 307.801C188.263 308.073 188.175 308.397 188.175 308.773C188.175 309.325 188.363 309.765 188.739 310.093C189.123 310.421 189.639 310.585 190.287 310.585C190.719 310.585 191.095 310.505 191.415 310.345C191.743 310.185 191.995 309.965 192.171 309.685C192.355 309.405 192.447 309.093 192.447 308.749C192.447 308.437 192.363 308.145 192.195 307.873C192.027 307.601 191.779 307.381 191.451 307.213C191.123 307.037 190.715 306.949 190.227 306.949ZM197.874 314.761C197.202 314.761 196.622 314.665 196.134 314.473C195.654 314.281 195.282 314.005 195.018 313.645C194.762 313.277 194.634 312.845 194.634 312.349C194.634 311.869 194.758 311.461 195.006 311.125C195.262 310.781 195.63 310.517 196.11 310.333C196.598 310.149 197.186 310.057 197.874 310.057C198.554 310.057 199.138 310.149 199.626 310.333C200.114 310.517 200.486 310.781 200.742 311.125C201.006 311.461 201.138 311.869 201.138 312.349C201.138 312.845 201.006 313.277 200.742 313.645C200.478 314.005 200.102 314.281 199.614 314.473C199.126 314.665 198.546 314.761 197.874 314.761ZM197.874 314.029C198.618 314.029 199.198 313.877 199.614 313.573C200.038 313.269 200.25 312.857 200.25 312.337C200.25 311.817 200.038 311.409 199.614 311.113C199.198 310.809 198.618 310.657 197.874 310.657C197.13 310.657 196.55 310.809 196.134 311.113C195.718 311.409 195.51 311.817 195.51 312.337C195.51 312.857 195.718 313.269 196.134 313.573C196.55 313.877 197.13 314.029 197.874 314.029ZM197.874 310.549C197.25 310.549 196.718 310.465 196.278 310.297C195.846 310.129 195.514 309.889 195.282 309.577C195.05 309.257 194.934 308.877 194.934 308.437C194.934 307.973 195.054 307.577 195.294 307.249C195.542 306.913 195.886 306.657 196.326 306.481C196.766 306.305 197.282 306.217 197.874 306.217C198.466 306.217 198.982 306.305 199.422 306.481C199.87 306.657 200.218 306.913 200.466 307.249C200.714 307.577 200.838 307.973 200.838 308.437C200.838 308.877 200.722 309.257 200.49 309.577C200.258 309.889 199.918 310.129 199.47 310.297C199.03 310.465 198.498 310.549 197.874 310.549ZM197.874 309.973C198.53 309.973 199.042 309.837 199.41 309.565C199.778 309.293 199.962 308.929 199.962 308.473C199.962 307.993 199.77 307.621 199.386 307.357C199.01 307.085 198.506 306.949 197.874 306.949C197.242 306.949 196.738 307.085 196.362 307.357C195.986 307.621 195.798 307.989 195.798 308.461C195.798 308.925 195.978 309.293 196.338 309.565C196.706 309.837 197.218 309.973 197.874 309.973ZM204.745 306.217C205.489 306.217 206.117 306.385 206.629 306.721C207.141 307.049 207.529 307.525 207.793 308.149C208.057 308.773 208.189 309.529 208.189 310.417C208.189 311.361 208.025 312.157 207.697 312.805C207.377 313.453 206.929 313.941 206.353 314.269C205.777 314.597 205.109 314.761 204.349 314.761C203.973 314.761 203.613 314.725 203.269 314.653C202.933 314.581 202.629 314.465 202.357 314.305L202.705 313.609C202.921 313.753 203.169 313.857 203.449 313.921C203.737 313.977 204.033 314.005 204.337 314.005C205.241 314.005 205.961 313.717 206.497 313.141C207.041 312.565 207.313 311.705 207.313 310.561C207.313 310.377 207.301 310.157 207.277 309.901C207.261 309.645 207.217 309.389 207.145 309.133L207.445 309.361C207.365 309.777 207.193 310.133 206.929 310.429C206.673 310.717 206.353 310.937 205.969 311.089C205.593 311.241 205.173 311.317 204.709 311.317C204.157 311.317 203.665 311.213 203.233 311.005C202.809 310.797 202.477 310.505 202.237 310.129C201.997 309.753 201.877 309.309 201.877 308.797C201.877 308.269 202.001 307.813 202.249 307.429C202.497 307.045 202.837 306.749 203.269 306.541C203.709 306.325 204.201 306.217 204.745 306.217ZM204.781 306.949C204.381 306.949 204.025 307.025 203.713 307.177C203.409 307.321 203.169 307.529 202.993 307.801C202.817 308.073 202.729 308.397 202.729 308.773C202.729 309.325 202.917 309.765 203.293 310.093C203.677 310.421 204.193 310.585 204.841 310.585C205.273 310.585 205.649 310.505 205.969 310.345C206.297 310.185 206.549 309.965 206.725 309.685C206.909 309.405 207.001 309.093 207.001 308.749C207.001 308.437 206.917 308.145 206.749 307.873C206.581 307.601 206.333 307.381 206.005 307.213C205.677 307.037 205.269 306.949 204.781 306.949ZM216.299 314.761C215.227 314.761 214.383 314.453 213.767 313.837C213.151 313.221 212.843 312.309 212.843 311.101V306.289H213.731V311.065C213.731 312.057 213.955 312.789 214.403 313.261C214.851 313.733 215.483 313.969 216.299 313.969C217.123 313.969 217.759 313.733 218.207 313.261C218.655 312.789 218.879 312.057 218.879 311.065V306.289H219.743V311.101C219.743 312.309 219.435 313.221 218.819 313.837C218.211 314.453 217.371 314.761 216.299 314.761ZM224.53 314.761C223.906 314.761 223.306 314.661 222.73 314.461C222.162 314.253 221.722 313.989 221.41 313.669L221.758 312.985C222.054 313.273 222.45 313.517 222.946 313.717C223.45 313.909 223.978 314.005 224.53 314.005C225.058 314.005 225.486 313.941 225.814 313.813C226.15 313.677 226.394 313.497 226.546 313.273C226.706 313.049 226.786 312.801 226.786 312.529C226.786 312.201 226.69 311.937 226.498 311.737C226.314 311.537 226.07 311.381 225.766 311.269C225.462 311.149 225.126 311.045 224.758 310.957C224.39 310.869 224.022 310.777 223.654 310.681C223.286 310.577 222.946 310.441 222.634 310.273C222.33 310.105 222.082 309.885 221.89 309.613C221.706 309.333 221.614 308.969 221.614 308.521C221.614 308.105 221.722 307.725 221.938 307.381C222.162 307.029 222.502 306.749 222.958 306.541C223.414 306.325 223.998 306.217 224.71 306.217C225.182 306.217 225.65 306.285 226.114 306.421C226.578 306.549 226.978 306.729 227.314 306.961L227.014 307.669C226.654 307.429 226.27 307.253 225.862 307.141C225.462 307.029 225.074 306.973 224.698 306.973C224.194 306.973 223.778 307.041 223.45 307.177C223.122 307.313 222.878 307.497 222.718 307.729C222.566 307.953 222.49 308.209 222.49 308.497C222.49 308.825 222.582 309.089 222.766 309.289C222.958 309.489 223.206 309.645 223.51 309.757C223.822 309.869 224.162 309.969 224.53 310.057C224.898 310.145 225.262 310.241 225.622 310.345C225.99 310.449 226.326 310.585 226.63 310.753C226.942 310.913 227.19 311.129 227.374 311.401C227.566 311.673 227.662 312.029 227.662 312.469C227.662 312.877 227.55 313.257 227.326 313.609C227.102 313.953 226.758 314.233 226.294 314.449C225.838 314.657 225.25 314.761 224.53 314.761ZM229.391 314.689V306.289H232.811C233.707 306.289 234.491 306.469 235.163 306.829C235.843 307.181 236.371 307.673 236.747 308.305C237.123 308.937 237.311 309.665 237.311 310.489C237.311 311.313 237.123 312.041 236.747 312.673C236.371 313.305 235.843 313.801 235.163 314.161C234.491 314.513 233.707 314.689 232.811 314.689H229.391ZM230.279 313.921H232.763C233.507 313.921 234.151 313.777 234.695 313.489C235.247 313.193 235.675 312.789 235.979 312.277C236.283 311.757 236.435 311.161 236.435 310.489C236.435 309.809 236.283 309.213 235.979 308.701C235.675 308.189 235.247 307.789 234.695 307.501C234.151 307.205 233.507 307.057 232.763 307.057H230.279V313.921ZM242.748 314.761C242.116 314.761 241.532 314.657 240.996 314.449C240.46 314.233 239.996 313.933 239.604 313.549C239.212 313.165 238.904 312.713 238.68 312.193C238.464 311.673 238.356 311.105 238.356 310.489C238.356 309.873 238.464 309.305 238.68 308.785C238.904 308.265 239.212 307.813 239.604 307.429C240.004 307.045 240.472 306.749 241.008 306.541C241.544 306.325 242.128 306.217 242.76 306.217C243.368 306.217 243.94 306.321 244.476 306.529C245.012 306.729 245.464 307.033 245.832 307.441L245.268 308.005C244.924 307.653 244.544 307.401 244.128 307.249C243.712 307.089 243.264 307.009 242.784 307.009C242.28 307.009 241.812 307.097 241.38 307.273C240.948 307.441 240.572 307.685 240.252 308.005C239.932 308.317 239.68 308.685 239.496 309.109C239.32 309.525 239.232 309.985 239.232 310.489C239.232 310.993 239.32 311.457 239.496 311.881C239.68 312.297 239.932 312.665 240.252 312.985C240.572 313.297 240.948 313.541 241.38 313.717C241.812 313.885 242.28 313.969 242.784 313.969C243.264 313.969 243.712 313.889 244.128 313.729C244.544 313.569 244.924 313.313 245.268 312.961L245.832 313.525C245.464 313.933 245.012 314.241 244.476 314.449C243.94 314.657 243.364 314.761 242.748 314.761Z" fill="#717A8C"/>
<path d="M448.637 310.057C448.349 310.057 448.097 309.997 447.881 309.877C447.673 309.749 447.481 309.605 447.305 309.445C447.129 309.285 446.957 309.145 446.789 309.025C446.621 308.905 446.433 308.845 446.225 308.845C445.945 308.845 445.721 308.949 445.553 309.157C445.393 309.357 445.305 309.633 445.289 309.985H444.713C444.729 309.385 444.873 308.933 445.145 308.629C445.425 308.325 445.777 308.173 446.201 308.173C446.489 308.173 446.737 308.237 446.945 308.365C447.161 308.485 447.353 308.625 447.521 308.785C447.697 308.945 447.869 309.089 448.037 309.217C448.213 309.337 448.405 309.397 448.613 309.397C448.893 309.397 449.117 309.293 449.285 309.085C449.453 308.869 449.541 308.585 449.549 308.233H450.125C450.109 308.833 449.965 309.289 449.693 309.601C449.421 309.905 449.069 310.057 448.637 310.057ZM448.637 312.805C448.349 312.805 448.097 312.745 447.881 312.625C447.673 312.505 447.481 312.365 447.305 312.205C447.129 312.045 446.957 311.905 446.789 311.785C446.621 311.657 446.433 311.593 446.225 311.593C445.945 311.593 445.721 311.697 445.553 311.905C445.393 312.113 445.305 312.393 445.289 312.745H444.713C444.729 312.137 444.873 311.685 445.145 311.389C445.425 311.085 445.777 310.933 446.201 310.933C446.489 310.933 446.737 310.993 446.945 311.113C447.161 311.233 447.353 311.373 447.521 311.533C447.697 311.693 447.869 311.837 448.037 311.965C448.213 312.085 448.405 312.145 448.613 312.145C448.893 312.145 449.117 312.041 449.285 311.833C449.453 311.625 449.541 311.345 449.549 310.993H450.125C450.109 311.593 449.965 312.045 449.693 312.349C449.421 312.653 449.069 312.805 448.637 312.805ZM454.098 316.129V304.849H454.698V316.129H454.098ZM454.35 314.761C453.726 314.761 453.126 314.661 452.55 314.461C451.982 314.253 451.542 313.989 451.23 313.669L451.578 312.985C451.874 313.273 452.27 313.517 452.766 313.717C453.27 313.909 453.798 314.005 454.35 314.005C454.878 314.005 455.306 313.941 455.634 313.813C455.97 313.677 456.214 313.497 456.366 313.273C456.526 313.049 456.606 312.801 456.606 312.529C456.606 312.201 456.51 311.937 456.318 311.737C456.134 311.537 455.89 311.381 455.586 311.269C455.282 311.149 454.946 311.045 454.578 310.957C454.21 310.869 453.842 310.777 453.474 310.681C453.106 310.577 452.766 310.441 452.454 310.273C452.15 310.105 451.902 309.885 451.71 309.613C451.526 309.333 451.434 308.969 451.434 308.521C451.434 308.105 451.542 307.725 451.758 307.381C451.982 307.029 452.322 306.749 452.778 306.541C453.234 306.325 453.818 306.217 454.53 306.217C455.002 306.217 455.47 306.285 455.934 306.421C456.398 306.549 456.798 306.729 457.134 306.961L456.834 307.669C456.474 307.429 456.09 307.253 455.682 307.141C455.282 307.029 454.894 306.973 454.518 306.973C454.014 306.973 453.598 307.041 453.27 307.177C452.942 307.313 452.698 307.497 452.538 307.729C452.386 307.953 452.31 308.209 452.31 308.497C452.31 308.825 452.402 309.089 452.586 309.289C452.778 309.489 453.026 309.645 453.33 309.757C453.642 309.869 453.982 309.969 454.35 310.057C454.718 310.145 455.082 310.241 455.442 310.345C455.81 310.449 456.146 310.585 456.45 310.753C456.762 310.913 457.01 311.129 457.194 311.401C457.386 311.673 457.482 312.029 457.482 312.469C457.482 312.877 457.37 313.257 457.146 313.609C456.922 313.953 456.578 314.233 456.114 314.449C455.658 314.657 455.07 314.761 454.35 314.761ZM461.259 312.481V311.857L465.711 306.289H466.671L462.255 311.857L461.787 311.713H468.543V312.481H461.259ZM465.999 314.689V312.481L466.023 311.713V309.769H466.863V314.689H465.999ZM472.48 314.761C471.832 314.761 471.256 314.593 470.752 314.257C470.248 313.913 469.852 313.425 469.564 312.793C469.276 312.153 469.132 311.385 469.132 310.489C469.132 309.593 469.276 308.829 469.564 308.197C469.852 307.557 470.248 307.069 470.752 306.733C471.256 306.389 471.832 306.217 472.48 306.217C473.128 306.217 473.704 306.389 474.208 306.733C474.712 307.069 475.108 307.557 475.396 308.197C475.692 308.829 475.84 309.593 475.84 310.489C475.84 311.385 475.692 312.153 475.396 312.793C475.108 313.425 474.712 313.913 474.208 314.257C473.704 314.593 473.128 314.761 472.48 314.761ZM472.48 313.969C472.976 313.969 473.408 313.837 473.776 313.573C474.144 313.301 474.432 312.909 474.64 312.397C474.848 311.877 474.952 311.241 474.952 310.489C474.952 309.737 474.848 309.105 474.64 308.593C474.432 308.073 474.144 307.681 473.776 307.417C473.408 307.145 472.976 307.009 472.48 307.009C472 307.009 471.572 307.145 471.196 307.417C470.82 307.681 470.528 308.073 470.32 308.593C470.112 309.105 470.008 309.737 470.008 310.489C470.008 311.241 470.112 311.877 470.32 312.397C470.528 312.909 470.82 313.301 471.196 313.573C471.572 313.837 472 313.969 472.48 313.969ZM480.22 314.761C479.572 314.761 478.996 314.593 478.492 314.257C477.988 313.913 477.592 313.425 477.304 312.793C477.016 312.153 476.872 311.385 476.872 310.489C476.872 309.593 477.016 308.829 477.304 308.197C477.592 307.557 477.988 307.069 478.492 306.733C478.996 306.389 479.572 306.217 480.22 306.217C480.868 306.217 481.444 306.389 481.948 306.733C482.452 307.069 482.848 307.557 483.136 308.197C483.432 308.829 483.58 309.593 483.58 310.489C483.58 311.385 483.432 312.153 483.136 312.793C482.848 313.425 482.452 313.913 481.948 314.257C481.444 314.593 480.868 314.761 480.22 314.761ZM480.22 313.969C480.716 313.969 481.148 313.837 481.516 313.573C481.884 313.301 482.172 312.909 482.38 312.397C482.588 311.877 482.692 311.241 482.692 310.489C482.692 309.737 482.588 309.105 482.38 308.593C482.172 308.073 481.884 307.681 481.516 307.417C481.148 307.145 480.716 307.009 480.22 307.009C479.74 307.009 479.312 307.145 478.936 307.417C478.56 307.681 478.268 308.073 478.06 308.593C477.852 309.105 477.748 309.737 477.748 310.489C477.748 311.241 477.852 311.877 478.06 312.397C478.268 312.909 478.56 313.301 478.936 313.573C479.312 313.837 479.74 313.969 480.22 313.969ZM485.131 314.749C484.955 314.749 484.803 314.685 484.675 314.557C484.555 314.429 484.495 314.273 484.495 314.089C484.495 313.897 484.555 313.741 484.675 313.621C484.803 313.501 484.955 313.441 485.131 313.441C485.307 313.441 485.455 313.501 485.575 313.621C485.703 313.741 485.767 313.897 485.767 314.089C485.767 314.273 485.703 314.429 485.575 314.557C485.455 314.685 485.307 314.749 485.131 314.749ZM490.135 314.761C489.391 314.761 488.763 314.597 488.251 314.269C487.739 313.933 487.351 313.453 487.087 312.829C486.823 312.197 486.691 311.441 486.691 310.561C486.691 309.609 486.851 308.813 487.171 308.173C487.499 307.525 487.951 307.037 488.527 306.709C489.103 306.381 489.771 306.217 490.531 306.217C490.907 306.217 491.267 306.253 491.611 306.325C491.955 306.397 492.259 306.513 492.523 306.673L492.175 307.369C491.959 307.225 491.711 307.125 491.431 307.069C491.151 307.005 490.855 306.973 490.543 306.973C489.639 306.973 488.915 307.261 488.371 307.837C487.835 308.413 487.567 309.273 487.567 310.417C487.567 310.593 487.575 310.813 487.591 311.077C487.615 311.333 487.663 311.589 487.735 311.845L487.435 311.617C487.523 311.201 487.695 310.849 487.951 310.561C488.207 310.265 488.527 310.041 488.911 309.889C489.295 309.737 489.715 309.661 490.171 309.661C490.731 309.661 491.223 309.765 491.647 309.973C492.071 310.181 492.403 310.473 492.643 310.849C492.883 311.225 493.003 311.669 493.003 312.181C493.003 312.701 492.879 313.157 492.631 313.549C492.383 313.933 492.039 314.233 491.599 314.449C491.167 314.657 490.679 314.761 490.135 314.761ZM490.099 314.029C490.499 314.029 490.851 313.957 491.155 313.813C491.467 313.661 491.711 313.449 491.887 313.177C492.063 312.897 492.151 312.573 492.151 312.205C492.151 311.653 491.959 311.213 491.575 310.885C491.199 310.557 490.687 310.393 490.039 310.393C489.607 310.393 489.231 310.473 488.911 310.633C488.591 310.793 488.339 311.013 488.155 311.293C487.971 311.565 487.879 311.877 487.879 312.229C487.879 312.533 487.963 312.825 488.131 313.105C488.299 313.377 488.547 313.601 488.875 313.777C489.211 313.945 489.619 314.029 490.099 314.029ZM496.306 314.761C495.698 314.761 495.122 314.665 494.578 314.473C494.042 314.273 493.61 314.009 493.282 313.681L493.702 312.997C493.974 313.277 494.338 313.509 494.794 313.693C495.258 313.877 495.762 313.969 496.306 313.969C497.002 313.969 497.534 313.817 497.902 313.513C498.278 313.209 498.466 312.801 498.466 312.289C498.466 311.777 498.282 311.369 497.914 311.065C497.554 310.761 496.982 310.609 496.198 310.609H495.598V309.973L498.19 306.721L498.31 307.057H493.63V306.289H499.03V306.901L496.438 310.153L496.018 309.877H496.342C497.35 309.877 498.102 310.101 498.598 310.549C499.102 310.997 499.354 311.573 499.354 312.277C499.354 312.749 499.242 313.173 499.018 313.549C498.794 313.925 498.454 314.221 497.998 314.437C497.55 314.653 496.986 314.761 496.306 314.761ZM503.559 314.761C502.887 314.761 502.307 314.665 501.819 314.473C501.339 314.281 500.967 314.005 500.703 313.645C500.447 313.277 500.319 312.845 500.319 312.349C500.319 311.869 500.443 311.461 500.691 311.125C500.947 310.781 501.315 310.517 501.795 310.333C502.283 310.149 502.871 310.057 503.559 310.057C504.239 310.057 504.823 310.149 505.311 310.333C505.799 310.517 506.171 310.781 506.427 311.125C506.691 311.461 506.823 311.869 506.823 312.349C506.823 312.845 506.691 313.277 506.427 313.645C506.163 314.005 505.787 314.281 505.299 314.473C504.811 314.665 504.231 314.761 503.559 314.761ZM503.559 314.029C504.303 314.029 504.883 313.877 505.299 313.573C505.723 313.269 505.935 312.857 505.935 312.337C505.935 311.817 505.723 311.409 505.299 311.113C504.883 310.809 504.303 310.657 503.559 310.657C502.815 310.657 502.235 310.809 501.819 311.113C501.403 311.409 501.195 311.817 501.195 312.337C501.195 312.857 501.403 313.269 501.819 313.573C502.235 313.877 502.815 314.029 503.559 314.029ZM503.559 310.549C502.935 310.549 502.403 310.465 501.963 310.297C501.531 310.129 501.199 309.889 500.967 309.577C500.735 309.257 500.619 308.877 500.619 308.437C500.619 307.973 500.739 307.577 500.979 307.249C501.227 306.913 501.571 306.657 502.011 306.481C502.451 306.305 502.967 306.217 503.559 306.217C504.151 306.217 504.667 306.305 505.107 306.481C505.555 306.657 505.903 306.913 506.151 307.249C506.399 307.577 506.523 307.973 506.523 308.437C506.523 308.877 506.407 309.257 506.175 309.577C505.943 309.889 505.603 310.129 505.155 310.297C504.715 310.465 504.183 310.549 503.559 310.549ZM503.559 309.973C504.215 309.973 504.727 309.837 505.095 309.565C505.463 309.293 505.647 308.929 505.647 308.473C505.647 307.993 505.455 307.621 505.071 307.357C504.695 307.085 504.191 306.949 503.559 306.949C502.927 306.949 502.423 307.085 502.047 307.357C501.671 307.621 501.483 307.989 501.483 308.461C501.483 308.925 501.663 309.293 502.023 309.565C502.391 309.837 502.903 309.973 503.559 309.973ZM507.658 314.689V314.077L511.15 310.657C511.47 310.345 511.71 310.073 511.87 309.841C512.03 309.601 512.138 309.377 512.194 309.169C512.25 308.961 512.278 308.765 512.278 308.581C512.278 308.093 512.11 307.709 511.774 307.429C511.446 307.149 510.958 307.009 510.31 307.009C509.814 307.009 509.374 307.085 508.99 307.237C508.614 307.389 508.29 307.625 508.018 307.945L507.406 307.417C507.734 307.033 508.154 306.737 508.666 306.529C509.178 306.321 509.75 306.217 510.382 306.217C510.95 306.217 511.442 306.309 511.858 306.493C512.274 306.669 512.594 306.929 512.818 307.273C513.05 307.617 513.166 308.021 513.166 308.485C513.166 308.757 513.126 309.025 513.046 309.289C512.974 309.553 512.838 309.833 512.638 310.129C512.446 310.417 512.162 310.745 511.786 311.113L508.582 314.257L508.342 313.921H513.55V314.689H507.658Z" fill="#717A8C"/>
<rect x="280" y="259" width="50" height="50" rx="25" transform="rotate(-90 280 259)" fill="#2D3542"/>
<rect x="280" y="259" width="50" height="50" rx="25" transform="rotate(-90 280 259)" stroke="#252B36" stroke-width="6"/>
<path d="M303.45 228.72L299.73 225L296.01 228.72" stroke="#717A8C" stroke-width="2" stroke-linecap="round" stroke-linejoin="round"/>
<path d="M299.73 243V225" stroke="#717A8C" stroke-width="2" stroke-linecap="round" stroke-linejoin="round"/>
<path d="M306.55 239.28L310.27 243L313.99 239.28" stroke="#717A8C" stroke-width="2" stroke-linecap="round" stroke-linejoin="round"/>
<path d="M310.27 225V243" stroke="#717A8C" stroke-width="2" stroke-linecap="round" stroke-linejoin="round"/>
<path d="M389.088 361V352.96L389.472 353.368H387.108V352.6H389.952V361H389.088ZM398.818 361.072C397.746 361.072 396.902 360.764 396.286 360.148C395.67 359.532 395.362 358.62 395.362 357.412V352.6H396.25V357.376C396.25 358.368 396.474 359.1 396.922 359.572C397.37 360.044 398.002 360.28 398.818 360.28C399.642 360.28 400.278 360.044 400.726 359.572C401.174 359.1 401.398 358.368 401.398 357.376V352.6H402.262V357.412C402.262 358.62 401.954 359.532 401.338 360.148C400.73 360.764 399.89 361.072 398.818 361.072ZM407.048 361.072C406.424 361.072 405.824 360.972 405.248 360.772C404.68 360.564 404.24 360.3 403.928 359.98L404.276 359.296C404.572 359.584 404.968 359.828 405.464 360.028C405.968 360.22 406.496 360.316 407.048 360.316C407.576 360.316 408.004 360.252 408.332 360.124C408.668 359.988 408.912 359.808 409.064 359.584C409.224 359.36 409.304 359.112 409.304 358.84C409.304 358.512 409.208 358.248 409.016 358.048C408.832 357.848 408.588 357.692 408.284 357.58C407.98 357.46 407.644 357.356 407.276 357.268C406.908 357.18 406.54 357.088 406.172 356.992C405.804 356.888 405.464 356.752 405.152 356.584C404.848 356.416 404.6 356.196 404.408 355.924C404.224 355.644 404.132 355.28 404.132 354.832C404.132 354.416 404.24 354.036 404.456 353.692C404.68 353.34 405.02 353.06 405.476 352.852C405.932 352.636 406.516 352.528 407.228 352.528C407.7 352.528 408.168 352.596 408.632 352.732C409.096 352.86 409.496 353.04 409.832 353.272L409.532 353.98C409.172 353.74 408.788 353.564 408.38 353.452C407.98 353.34 407.592 353.284 407.216 353.284C406.712 353.284 406.296 353.352 405.968 353.488C405.64 353.624 405.396 353.808 405.236 354.04C405.084 354.264 405.008 354.52 405.008 354.808C405.008 355.136 405.1 355.4 405.284 355.6C405.476 355.8 405.724 355.956 406.028 356.068C406.34 356.18 406.68 356.28 407.048 356.368C407.416 356.456 407.78 356.552 408.14 356.656C408.508 356.76 408.844 356.896 409.148 357.064C409.46 357.224 409.708 357.44 409.892 357.712C410.084 357.984 410.18 358.34 410.18 358.78C410.18 359.188 410.068 359.568 409.844 359.92C409.62 360.264 409.276 360.544 408.812 360.76C408.356 360.968 407.768 361.072 407.048 361.072ZM411.91 361V352.6H415.33C416.226 352.6 417.01 352.78 417.682 353.14C418.362 353.492 418.89 353.984 419.266 354.616C419.642 355.248 419.83 355.976 419.83 356.8C419.83 357.624 419.642 358.352 419.266 358.984C418.89 359.616 418.362 360.112 417.682 360.472C417.01 360.824 416.226 361 415.33 361H411.91ZM412.798 360.232H415.282C416.026 360.232 416.67 360.088 417.214 359.8C417.766 359.504 418.194 359.1 418.498 358.588C418.802 358.068 418.954 357.472 418.954 356.8C418.954 356.12 418.802 355.524 418.498 355.012C418.194 354.5 417.766 354.1 417.214 353.812C416.67 353.516 416.026 353.368 415.282 353.368H412.798V360.232ZM425.267 361.072C424.635 361.072 424.051 360.968 423.515 360.76C422.979 360.544 422.515 360.244 422.123 359.86C421.731 359.476 421.423 359.024 421.199 358.504C420.983 357.984 420.875 357.416 420.875 356.8C420.875 356.184 420.983 355.616 421.199 355.096C421.423 354.576 421.731 354.124 422.123 353.74C422.523 353.356 422.991 353.06 423.527 352.852C424.063 352.636 424.647 352.528 425.279 352.528C425.887 352.528 426.459 352.632 426.995 352.84C427.531 353.04 427.983 353.344 428.351 353.752L427.787 354.316C427.443 353.964 427.063 353.712 426.647 353.56C426.231 353.4 425.783 353.32 425.303 353.32C424.799 353.32 424.331 353.408 423.899 353.584C423.467 353.752 423.091 353.996 422.771 354.316C422.451 354.628 422.199 354.996 422.015 355.42C421.839 355.836 421.751 356.296 421.751 356.8C421.751 357.304 421.839 357.768 422.015 358.192C422.199 358.608 422.451 358.976 422.771 359.296C423.091 359.608 423.467 359.852 423.899 360.028C424.331 360.196 424.799 360.28 425.303 360.28C425.783 360.28 426.231 360.2 426.647 360.04C427.063 359.88 427.443 359.624 427.787 359.272L428.351 359.836C427.983 360.244 427.531 360.552 426.995 360.76C426.459 360.968 425.883 361.072 425.267 361.072ZM432.446 355.768V355.06H437.666V355.768H432.446ZM432.446 358.54V357.832H437.666V358.54H432.446ZM445.21 361.072C444.562 361.072 443.986 360.904 443.482 360.568C442.978 360.224 442.582 359.736 442.294 359.104C442.006 358.464 441.862 357.696 441.862 356.8C441.862 355.904 442.006 355.14 442.294 354.508C442.582 353.868 442.978 353.38 443.482 353.044C443.986 352.7 444.562 352.528 445.21 352.528C445.858 352.528 446.434 352.7 446.938 353.044C447.442 353.38 447.838 353.868 448.126 354.508C448.422 355.14 448.57 355.904 448.57 356.8C448.57 357.696 448.422 358.464 448.126 359.104C447.838 359.736 447.442 360.224 446.938 360.568C446.434 360.904 445.858 361.072 445.21 361.072ZM445.21 360.28C445.706 360.28 446.138 360.148 446.506 359.884C446.874 359.612 447.162 359.22 447.37 358.708C447.578 358.188 447.682 357.552 447.682 356.8C447.682 356.048 447.578 355.416 447.37 354.904C447.162 354.384 446.874 353.992 446.506 353.728C446.138 353.456 445.706 353.32 445.21 353.32C444.73 353.32 444.302 353.456 443.926 353.728C443.55 353.992 443.258 354.384 443.05 354.904C442.842 355.416 442.738 356.048 442.738 356.8C442.738 357.552 442.842 358.188 443.05 358.708C443.258 359.22 443.55 359.612 443.926 359.884C444.302 360.148 444.73 360.28 445.21 360.28ZM450.121 361.06C449.945 361.06 449.793 360.996 449.665 360.868C449.545 360.74 449.485 360.584 449.485 360.4C449.485 360.208 449.545 360.052 449.665 359.932C449.793 359.812 449.945 359.752 450.121 359.752C450.297 359.752 450.445 359.812 450.565 359.932C450.693 360.052 450.757 360.208 450.757 360.4C450.757 360.584 450.693 360.74 450.565 360.868C450.445 360.996 450.297 361.06 450.121 361.06ZM455.03 361.072C454.382 361.072 453.806 360.904 453.302 360.568C452.798 360.224 452.402 359.736 452.114 359.104C451.826 358.464 451.682 357.696 451.682 356.8C451.682 355.904 451.826 355.14 452.114 354.508C452.402 353.868 452.798 353.38 453.302 353.044C453.806 352.7 454.382 352.528 455.03 352.528C455.678 352.528 456.254 352.7 456.758 353.044C457.262 353.38 457.658 353.868 457.946 354.508C458.242 355.14 458.39 355.904 458.39 356.8C458.39 357.696 458.242 358.464 457.946 359.104C457.658 359.736 457.262 360.224 456.758 360.568C456.254 360.904 455.678 361.072 455.03 361.072ZM455.03 360.28C455.526 360.28 455.958 360.148 456.326 359.884C456.694 359.612 456.982 359.22 457.19 358.708C457.398 358.188 457.502 357.552 457.502 356.8C457.502 356.048 457.398 355.416 457.19 354.904C456.982 354.384 456.694 353.992 456.326 353.728C455.958 353.456 455.526 353.32 455.03 353.32C454.55 353.32 454.122 353.456 453.746 353.728C453.37 353.992 453.078 354.384 452.87 354.904C452.662 355.416 452.558 356.048 452.558 356.8C452.558 357.552 452.662 358.188 452.87 358.708C453.078 359.22 453.37 359.612 453.746 359.884C454.122 360.148 454.55 360.28 455.03 360.28ZM462.77 361.072C462.122 361.072 461.546 360.904 461.042 360.568C460.538 360.224 460.142 359.736 459.854 359.104C459.566 358.464 459.422 357.696 459.422 356.8C459.422 355.904 459.566 355.14 459.854 354.508C460.142 353.868 460.538 353.38 461.042 353.044C461.546 352.7 462.122 352.528 462.77 352.528C463.418 352.528 463.994 352.7 464.498 353.044C465.002 353.38 465.398 353.868 465.686 354.508C465.982 355.14 466.13 355.904 466.13 356.8C466.13 357.696 465.982 358.464 465.686 359.104C465.398 359.736 465.002 360.224 464.498 360.568C463.994 360.904 463.418 361.072 462.77 361.072ZM462.77 360.28C463.266 360.28 463.698 360.148 464.066 359.884C464.434 359.612 464.722 359.22 464.93 358.708C465.138 358.188 465.242 357.552 465.242 356.8C465.242 356.048 465.138 355.416 464.93 354.904C464.722 354.384 464.434 353.992 464.066 353.728C463.698 353.456 463.266 353.32 462.77 353.32C462.29 353.32 461.862 353.456 461.486 353.728C461.11 353.992 460.818 354.384 460.61 354.904C460.402 355.416 460.298 356.048 460.298 356.8C460.298 357.552 460.402 358.188 460.61 358.708C460.818 359.22 461.11 359.612 461.486 359.884C461.862 360.148 462.29 360.28 462.77 360.28ZM470.51 361.072C469.862 361.072 469.286 360.904 468.782 360.568C468.278 360.224 467.882 359.736 467.594 359.104C467.306 358.464 467.162 357.696 467.162 356.8C467.162 355.904 467.306 355.14 467.594 354.508C467.882 353.868 468.278 353.38 468.782 353.044C469.286 352.7 469.862 352.528 470.51 352.528C471.158 352.528 471.734 352.7 472.238 353.044C472.742 353.38 473.138 353.868 473.426 354.508C473.722 355.14 473.87 355.904 473.87 356.8C473.87 357.696 473.722 358.464 473.426 359.104C473.138 359.736 472.742 360.224 472.238 360.568C471.734 360.904 471.158 361.072 470.51 361.072ZM470.51 360.28C471.006 360.28 471.438 360.148 471.806 359.884C472.174 359.612 472.462 359.22 472.67 358.708C472.878 358.188 472.982 357.552 472.982 356.8C472.982 356.048 472.878 355.416 472.67 354.904C472.462 354.384 472.174 353.992 471.806 353.728C471.438 353.456 471.006 353.32 470.51 353.32C470.03 353.32 469.602 353.456 469.226 353.728C468.85 353.992 468.558 354.384 468.35 354.904C468.142 355.416 468.038 356.048 468.038 356.8C468.038 357.552 468.142 358.188 468.35 358.708C468.558 359.22 468.85 359.612 469.226 359.884C469.602 360.148 470.03 360.28 470.51 360.28ZM474.758 358.792V358.168L479.21 352.6H480.17L475.754 358.168L475.286 358.024H482.042V358.792H474.758ZM479.498 361V358.792L479.522 358.024V356.08H480.362V361H479.498ZM483.789 361V352.96L484.173 353.368H481.809V352.6H484.653V361H483.789ZM486.3 361V360.388L489.792 356.968C490.112 356.656 490.352 356.384 490.512 356.152C490.672 355.912 490.78 355.688 490.836 355.48C490.892 355.272 490.92 355.076 490.92 354.892C490.92 354.404 490.752 354.02 490.416 353.74C490.088 353.46 489.6 353.32 488.952 353.32C488.456 353.32 488.016 353.396 487.632 353.548C487.256 353.7 486.932 353.936 486.66 354.256L486.048 353.728C486.376 353.344 486.796 353.048 487.308 352.84C487.82 352.632 488.392 352.528 489.024 352.528C489.592 352.528 490.084 352.62 490.5 352.804C490.916 352.98 491.236 353.24 491.46 353.584C491.692 353.928 491.808 354.332 491.808 354.796C491.808 355.068 491.768 355.336 491.688 355.6C491.616 355.864 491.48 356.144 491.28 356.44C491.088 356.728 490.804 357.056 490.428 357.424L487.224 360.568L486.984 360.232H492.192V361H486.3ZM494.607 356.356H499.047V357.112H494.607V356.356ZM494.703 360.232H499.755V361H493.815V352.6H499.575V353.368H494.703V360.232ZM503.269 361V353.368H500.317V352.6H507.109V353.368H504.157V361H503.269ZM514.466 352.6H515.342V361H514.466V352.6ZM509.21 361H508.322V352.6H509.21V361ZM514.55 357.124H509.114V356.344H514.55V357.124Z" fill="#717A8C"/>
<rect x="77" y="378" width="456" height="56" rx="12" fill="#C4B454"/>
<path d="M287.639 402.288C287.095 402.288 286.647 402.4 286.295 402.624C285.943 402.848 285.767 403.189 285.767 403.648C285.767 404.096 285.943 404.443 286.295 404.688C286.647 404.923 287.394 405.179 288.535 405.456C289.687 405.733 290.551 406.123 291.127 406.624C291.714 407.125 292.007 407.867 292.007 408.848C292.007 409.819 291.639 410.608 290.903 411.216C290.167 411.824 289.202 412.128 288.007 412.128C286.258 412.128 284.706 411.525 283.351 410.32L284.535 408.896C285.666 409.877 286.839 410.368 288.055 410.368C288.663 410.368 289.143 410.24 289.495 409.984C289.858 409.717 290.039 409.371 290.039 408.944C290.039 408.507 289.868 408.171 289.527 407.936C289.196 407.691 288.62 407.472 287.799 407.28C286.978 407.077 286.354 406.896 285.927 406.736C285.5 406.565 285.122 406.347 284.791 406.08C284.13 405.579 283.799 404.811 283.799 403.776C283.799 402.741 284.172 401.947 284.919 401.392C285.676 400.827 286.61 400.544 287.719 400.544C288.434 400.544 289.143 400.661 289.847 400.896C290.551 401.131 291.159 401.461 291.671 401.888L290.663 403.312C290.332 403.013 289.884 402.768 289.319 402.576C288.754 402.384 288.194 402.288 287.639 402.288ZM297.913 412H295.865L292.921 403.488H294.777L296.889 409.92L299.001 403.488H300.857L302.969 409.92L305.081 403.488H306.937L303.993 412H301.945L299.929 406.176L297.913 412ZM315.34 412H313.708V410.864C313.004 411.707 312.06 412.128 310.876 412.128C309.991 412.128 309.255 411.877 308.668 411.376C308.092 410.875 307.804 410.208 307.804 409.376C307.804 408.533 308.114 407.904 308.732 407.488C309.351 407.072 310.188 406.864 311.244 406.864H313.564V406.544C313.564 405.413 312.935 404.848 311.676 404.848C310.887 404.848 310.066 405.136 309.212 405.712L308.412 404.592C309.447 403.771 310.62 403.36 311.932 403.36C312.935 403.36 313.751 403.616 314.38 404.128C315.02 404.629 315.34 405.424 315.34 406.512V412ZM313.548 408.832V408.112H311.532C310.242 408.112 309.596 408.517 309.596 409.328C309.596 409.744 309.756 410.064 310.076 410.288C310.396 410.501 310.839 410.608 311.404 410.608C311.98 410.608 312.482 410.448 312.908 410.128C313.335 409.808 313.548 409.376 313.548 408.832ZM322.395 403.36C323.536 403.36 324.512 403.755 325.323 404.544C326.134 405.333 326.539 406.384 326.539 407.696C326.539 409.008 326.134 410.075 325.323 410.896C324.523 411.717 323.584 412.128 322.507 412.128C321.44 412.128 320.48 411.659 319.627 410.72V415.104H317.835V403.488H319.627V404.976C320.331 403.899 321.254 403.36 322.395 403.36ZM319.595 407.76C319.595 408.571 319.84 409.237 320.331 409.76C320.822 410.272 321.419 410.528 322.123 410.528C322.827 410.528 323.44 410.272 323.963 409.76C324.486 409.248 324.747 408.587 324.747 407.776C324.747 406.955 324.491 406.277 323.979 405.744C323.467 405.2 322.854 404.928 322.139 404.928C321.424 404.928 320.822 405.2 320.331 405.744C319.84 406.277 319.595 406.949 319.595 407.76Z" fill="white"/>
<defs>
<linearGradient id="paint0_linear_8_105" x1="0" y1="0" x2="357.183" y2="664.828" gradientUnits="userSpaceOnUse">
<stop stop-color="#8BC2FF"/>
<stop offset="1" stop-color="#2D55FF"/>
</linearGradient>
<clipPath id="clip0_8_105">
<rect width="21" height="21" fill="white" transform="translate(105.267 260.844)"/>
</clipPath>
</defs>
</svg>