<svg width="148" height="32" viewBox="0 0 148 32" fill="none" xmlns="http://www.w3.org/2000/svg">
<mask id="path-1-outside-1_2_152" maskUnits="userSpaceOnUse" x="-1" y="-1" width="150" height="35" fill="black">
<rect fill="white" x="-1" y="-1" width="150" height="35"/>
<path d="M0.661875 24V0.959999H10.3899C10.6139 0.959999 10.9125 0.970666 11.2859 0.991999C11.6699 1.00267 12.0112 1.03467 12.3099 1.088C13.6859 1.30133 14.8112 1.75467 15.6859 2.448C16.5712 3.14133 17.2219 4.016 17.6379 5.072C18.0539 6.11733 18.2619 7.28533 18.2619 8.576C18.2619 10.5067 17.7819 12.16 16.8219 13.536C15.8619 14.9013 14.3579 15.744 12.3099 16.064L10.3899 16.192H5.01388V24H0.661875ZM13.6539 24L9.10988 14.624L13.5899 13.76L18.5819 24H13.6539ZM5.01388 12.128H10.1979C10.4219 12.128 10.6672 12.1173 10.9339 12.096C11.2005 12.0747 11.4459 12.032 11.6699 11.968C12.2565 11.808 12.7099 11.5413 13.0299 11.168C13.3499 10.784 13.5685 10.3627 13.6859 9.904C13.8139 9.43467 13.8779 8.992 13.8779 8.576C13.8779 8.16 13.8139 7.72267 13.6859 7.264C13.5685 6.79467 13.3499 6.37333 13.0299 6C12.7099 5.616 12.2565 5.344 11.6699 5.184C11.4459 5.12 11.2005 5.07733 10.9339 5.056C10.6672 5.03467 10.4219 5.024 10.1979 5.024H5.01388V12.128ZM26.8994 24.48C25.662 24.48 24.6114 24.2453 23.7474 23.776C22.894 23.296 22.2434 22.6613 21.7954 21.872C21.358 21.072 21.1394 20.192 21.1394 19.232C21.1394 18.432 21.262 17.7013 21.5074 17.04C21.7527 16.3787 22.1474 15.7973 22.6914 15.296C23.246 14.784 23.9874 14.3573 24.9154 14.016C25.5554 13.7813 26.318 13.5733 27.2034 13.392C28.0887 13.2107 29.0914 13.04 30.2114 12.88C31.3314 12.7093 32.5634 12.5227 33.9074 12.32L32.3394 13.184C32.3394 12.16 32.094 11.408 31.6034 10.928C31.1127 10.448 30.2914 10.208 29.1394 10.208C28.4994 10.208 27.8327 10.3627 27.1394 10.672C26.446 10.9813 25.9607 11.5307 25.6834 12.32L21.7474 11.072C22.1847 9.64267 23.006 8.48 24.2114 7.584C25.4167 6.688 27.0594 6.24 29.1394 6.24C30.6647 6.24 32.0194 6.47467 33.2034 6.944C34.3874 7.41333 35.2834 8.224 35.8914 9.376C36.2327 10.016 36.4354 10.656 36.4994 11.296C36.5634 11.936 36.5954 12.6507 36.5954 13.44V24H32.7874V20.448L33.3314 21.184C32.4887 22.3467 31.5767 23.1893 30.5954 23.712C29.6247 24.224 28.3927 24.48 26.8994 24.48ZM27.8274 21.056C28.6274 21.056 29.2994 20.9173 29.8434 20.64C30.398 20.352 30.8354 20.0267 31.1554 19.664C31.486 19.3013 31.71 18.9973 31.8274 18.752C32.0514 18.2827 32.1794 17.7387 32.2114 17.12C32.254 16.4907 32.2754 15.968 32.2754 15.552L33.5554 15.872C32.2647 16.0853 31.2194 16.2667 30.4194 16.416C29.6194 16.5547 28.974 16.6827 28.4834 16.8C27.9927 16.9173 27.5607 17.0453 27.1874 17.184C26.7607 17.3547 26.414 17.5413 26.1474 17.744C25.8914 17.936 25.6994 18.1493 25.5714 18.384C25.454 18.6187 25.3954 18.88 25.3954 19.168C25.3954 19.5627 25.4914 19.904 25.6834 20.192C25.886 20.4693 26.1687 20.6827 26.5314 20.832C26.894 20.9813 27.326 21.056 27.8274 21.056ZM47.7636 24.48C46.1743 24.48 44.7823 24.08 43.5876 23.28C42.393 22.48 41.4596 21.392 40.7876 20.016C40.1263 18.64 39.7956 17.088 39.7956 15.36C39.7956 13.6 40.1316 12.0373 40.8036 10.672C41.4863 9.296 42.441 8.21333 43.6676 7.424C44.8943 6.63467 46.3343 6.24 47.9876 6.24C49.6303 6.24 51.0116 6.64 52.1316 7.44C53.2516 8.24 54.0996 9.328 54.6756 10.704C55.2516 12.08 55.5396 13.632 55.5396 15.36C55.5396 17.088 55.2463 18.64 54.6596 20.016C54.0836 21.392 53.2196 22.48 52.0676 23.28C50.9156 24.08 49.481 24.48 47.7636 24.48ZM48.4676 20.608C49.4383 20.608 50.2116 20.3893 50.7876 19.952C51.3743 19.5147 51.7956 18.9013 52.0516 18.112C52.3076 17.3227 52.4356 16.4053 52.4356 15.36C52.4356 14.3147 52.3076 13.3973 52.0516 12.608C51.7956 11.8187 51.385 11.2053 50.8196 10.768C50.265 10.3307 49.5343 10.112 48.6276 10.112C47.657 10.112 46.857 10.352 46.2276 10.832C45.609 11.3013 45.1503 11.936 44.8516 12.736C44.553 13.5253 44.4036 14.4 44.4036 15.36C44.4036 16.3307 44.5476 17.216 44.8356 18.016C45.1236 18.8053 45.5663 19.4347 46.1636 19.904C46.761 20.3733 47.529 20.608 48.4676 20.608ZM52.4356 24V12.16H51.8916V0.959999H56.2756V24H52.4356ZM61.0756 4.32V0.48H65.4276V4.32H61.0756ZM61.0756 24V6.72H65.4276V24H61.0756ZM76.9764 24.48C74.8004 24.48 73.0404 23.9893 71.6964 23.008C70.363 22.016 69.5524 20.6187 69.2644 18.816L73.7124 18.144C73.8937 18.9547 74.2937 19.5893 74.9124 20.048C75.5417 20.5067 76.3364 20.736 77.2964 20.736C78.0857 20.736 78.6937 20.5867 79.1204 20.288C79.547 19.9787 79.7604 19.552 79.7604 19.008C79.7604 18.6667 79.675 18.3947 79.5044 18.192C79.3337 17.9787 78.9497 17.7707 78.3524 17.568C77.7657 17.3653 76.8484 17.0987 75.6004 16.768C74.1924 16.4053 73.067 16 72.2244 15.552C71.3817 15.104 70.7737 14.5707 70.4004 13.952C70.027 13.3227 69.8404 12.5653 69.8404 11.68C69.8404 10.5707 70.123 9.61067 70.6884 8.8C71.2537 7.97867 72.0484 7.34933 73.0724 6.912C74.107 6.464 75.323 6.24 76.7204 6.24C78.075 6.24 79.275 6.448 80.3204 6.864C81.3657 7.28 82.2084 7.872 82.8484 8.64C83.499 9.408 83.899 10.3147 84.0484 11.36L79.6004 12.16C79.5257 11.52 79.2484 11.0133 78.7684 10.64C78.2884 10.2667 77.6377 10.048 76.8164 9.984C76.0164 9.93067 75.371 10.0373 74.8804 10.304C74.4004 10.5707 74.1604 10.9547 74.1604 11.456C74.1604 11.7547 74.2617 12.0053 74.4644 12.208C74.6777 12.4107 75.1097 12.6187 75.7604 12.832C76.4217 13.0453 77.4244 13.3227 78.7684 13.664C80.0804 14.0053 81.131 14.4053 81.9204 14.864C82.7204 15.312 83.3017 15.856 83.6644 16.496C84.027 17.1253 84.2084 17.888 84.2084 18.784C84.2084 20.5547 83.5684 21.9467 82.2884 22.96C81.0084 23.9733 79.2377 24.48 76.9764 24.48ZM90.7794 24L85.4994 6.688L89.7554 6.72L92.8914 17.024L96.0754 6.72H99.6914L102.875 17.024L106.011 6.72H110.267L104.987 24H101.659L97.8834 12.736L94.1074 24H90.7794ZM116.993 24.48C115.756 24.48 114.705 24.2453 113.841 23.776C112.988 23.296 112.337 22.6613 111.889 21.872C111.452 21.072 111.233 20.192 111.233 19.232C111.233 18.432 111.356 17.7013 111.601 17.04C111.846 16.3787 112.241 15.7973 112.785 15.296C113.34 14.784 114.081 14.3573 115.009 14.016C115.649 13.7813 116.412 13.5733 117.297 13.392C118.182 13.2107 119.185 13.04 120.305 12.88C121.425 12.7093 122.657 12.5227 124.001 12.32L122.433 13.184C122.433 12.16 122.188 11.408 121.697 10.928C121.206 10.448 120.385 10.208 119.233 10.208C118.593 10.208 117.926 10.3627 117.233 10.672C116.54 10.9813 116.054 11.5307 115.777 12.32L111.841 11.072C112.278 9.64267 113.1 8.48 114.305 7.584C115.51 6.688 117.153 6.24 119.233 6.24C120.758 6.24 122.113 6.47467 123.297 6.944C124.481 7.41333 125.377 8.224 125.985 9.376C126.326 10.016 126.529 10.656 126.593 11.296C126.657 11.936 126.689 12.6507 126.689 13.44V24H122.881V20.448L123.425 21.184C122.582 22.3467 121.67 23.1893 120.689 23.712C119.718 24.224 118.486 24.48 116.993 24.48ZM117.921 21.056C118.721 21.056 119.393 20.9173 119.937 20.64C120.492 20.352 120.929 20.0267 121.249 19.664C121.58 19.3013 121.804 18.9973 121.921 18.752C122.145 18.2827 122.273 17.7387 122.305 17.12C122.348 16.4907 122.369 15.968 122.369 15.552L123.649 15.872C122.358 16.0853 121.313 16.2667 120.513 16.416C119.713 16.5547 119.068 16.6827 118.577 16.8C118.086 16.9173 117.654 17.0453 117.281 17.184C116.854 17.3547 116.508 17.5413 116.241 17.744C115.985 17.936 115.793 18.1493 115.665 18.384C115.548 18.6187 115.489 18.88 115.489 19.168C115.489 19.5627 115.585 19.904 115.777 20.192C115.98 20.4693 116.262 20.6827 116.625 20.832C116.988 20.9813 117.42 21.056 117.921 21.056ZM139.329 24.48C137.612 24.48 136.177 24.08 135.025 23.28C133.873 22.48 133.004 21.392 132.417 20.016C131.841 18.64 131.553 17.088 131.553 15.36C131.553 13.632 131.841 12.08 132.417 10.704C132.993 9.328 133.841 8.24 134.961 7.44C136.081 6.64 137.463 6.24 139.105 6.24C140.759 6.24 142.199 6.63467 143.425 7.424C144.652 8.21333 145.601 9.296 146.273 10.672C146.956 12.0373 147.297 13.6 147.297 15.36C147.297 17.088 146.961 18.64 146.289 20.016C145.628 21.392 144.7 22.48 143.505 23.28C142.311 24.08 140.919 24.48 139.329 24.48ZM130.817 31.68V6.72H134.657V18.56H135.201V31.68H130.817ZM138.625 20.608C139.564 20.608 140.332 20.3733 140.929 19.904C141.527 19.4347 141.969 18.8053 142.257 18.016C142.545 17.216 142.689 16.3307 142.689 15.36C142.689 14.4 142.54 13.5253 142.241 12.736C141.943 11.936 141.479 11.3013 140.849 10.832C140.231 10.352 139.436 10.112 138.465 10.112C137.559 10.112 136.823 10.3307 136.257 10.768C135.703 11.2053 135.297 11.8187 135.041 12.608C134.785 13.3973 134.657 14.3147 134.657 15.36C134.657 16.4053 134.785 17.3227 135.041 18.112C135.297 18.9013 135.713 19.5147 136.289 19.952C136.876 20.3893 137.655 20.608 138.625 20.608Z"/>
</mask>
<path d="M0.661875 24H-0.745266V25.4071H0.661875V24ZM0.661875 0.959999V-0.447143H-0.745266V0.959999H0.661875ZM11.2859 0.991999L11.2056 2.39685L11.2262 2.39802L11.2468 2.3986L11.2859 0.991999ZM12.3099 1.088L12.0625 2.47323L12.0784 2.47606L12.0943 2.47853L12.3099 1.088ZM15.6859 2.448L14.8118 3.55074L14.8183 3.55585L15.6859 2.448ZM17.6379 5.072L16.3287 5.58775L16.3305 5.5923L17.6379 5.072ZM16.8219 13.536L17.973 14.3454L17.9759 14.3411L16.8219 13.536ZM12.3099 16.064L12.4035 17.468L12.4656 17.4639L12.5271 17.4543L12.3099 16.064ZM10.3899 16.192V17.5991H10.4367L10.4835 17.596L10.3899 16.192ZM5.01388 16.192V14.7849H3.60673V16.192H5.01388ZM5.01388 24V25.4071H6.42102V24H5.01388ZM13.6539 24L12.3876 24.6137L12.7721 25.4071H13.6539V24ZM9.10988 14.624L8.84341 13.2423L7.04469 13.5892L7.84361 15.2377L9.10988 14.624ZM13.5899 13.76L14.8547 13.1434L14.3822 12.1741L13.3234 12.3783L13.5899 13.76ZM18.5819 24V25.4071H20.8333L19.8467 23.3834L18.5819 24ZM5.01388 12.128H3.60673V13.5351H5.01388V12.128ZM10.9339 12.096L11.0461 13.4987H11.0461L10.9339 12.096ZM11.6699 11.968L11.2996 10.6104L11.2915 10.6127L11.2833 10.615L11.6699 11.968ZM13.0299 11.168L14.0983 12.0838L14.1046 12.0763L14.1109 12.0688L13.0299 11.168ZM13.6859 9.904L12.3283 9.53376L12.3254 9.54449L12.3226 9.55526L13.6859 9.904ZM13.6859 7.264L12.3207 7.60528L12.3254 7.62383L12.3305 7.64224L13.6859 7.264ZM13.0299 6L11.9489 6.90083L11.9551 6.90834L11.9615 6.91576L13.0299 6ZM11.6699 5.184L11.2833 6.537L11.2915 6.53933L11.2996 6.54156L11.6699 5.184ZM10.9339 5.056L10.8217 6.45866H10.8217L10.9339 5.056ZM5.01388 5.024V3.61686H3.60673V5.024H5.01388ZM2.06902 24V0.959999H-0.745266V24H2.06902ZM0.661875 2.36714H10.3899V-0.447143H0.661875V2.36714ZM10.3899 2.36714C10.5753 2.36714 10.8439 2.37618 11.2056 2.39685L11.3662 -0.412851C10.9812 -0.434849 10.6524 -0.447143 10.3899 -0.447143V2.36714ZM11.2468 2.3986C11.5784 2.40781 11.8479 2.43491 12.0625 2.47323L12.5572 -0.29723C12.1745 -0.365577 11.7614 -0.402477 11.3249 -0.4146L11.2468 2.3986ZM12.0943 2.47853C13.2884 2.66366 14.1698 3.04183 14.8118 3.55072L16.56 1.34528C15.4526 0.467505 14.0833 -0.060997 12.5255 -0.302529L12.0943 2.47853ZM14.8183 3.55585C15.5044 4.09316 16.0036 4.76264 16.3287 5.58775L18.9471 4.55625C18.4401 3.26936 17.638 2.18951 16.5535 1.34015L14.8183 3.55585ZM16.3305 5.5923C16.6716 6.44956 16.8547 7.43756 16.8547 8.576H19.669C19.669 7.13311 19.4361 5.78511 18.9453 4.5517L16.3305 5.5923ZM16.8547 8.576C16.8547 10.2635 16.4392 11.6253 15.6678 12.7309L17.9759 14.3411C19.1246 12.6947 19.669 10.7498 19.669 8.576H16.8547ZM15.6708 12.7266C14.9811 13.7075 13.8606 14.3975 12.0926 14.6737L12.5271 17.4543C14.8552 17.0905 16.7426 16.0952 17.973 14.3454L15.6708 12.7266ZM12.2163 14.66L10.2963 14.788L10.4835 17.596L12.4035 17.468L12.2163 14.66ZM10.3899 14.7849H5.01388V17.5991H10.3899V14.7849ZM3.60673 16.192V24H6.42102V16.192H3.60673ZM5.01388 22.5929H0.661875V25.4071H5.01388V22.5929ZM14.9201 23.3863L10.3761 14.0103L7.84361 15.2377L12.3876 24.6137L14.9201 23.3863ZM9.37634 16.0057L13.8563 15.1417L13.3234 12.3783L8.84341 13.2423L9.37634 16.0057ZM12.325 14.3766L17.317 24.6166L19.8467 23.3834L14.8547 13.1434L12.325 14.3766ZM18.5819 22.5929H13.6539V25.4071H18.5819V22.5929ZM5.01388 13.5351H10.1979V10.7209H5.01388V13.5351ZM10.1979 13.5351C10.4657 13.5351 10.749 13.5224 11.0461 13.4987L10.8217 10.6933C10.5854 10.7122 10.3781 10.7209 10.1979 10.7209V13.5351ZM11.0461 13.4987C11.3923 13.471 11.7308 13.414 12.0564 13.321L11.2833 10.615C11.1609 10.65 11.0088 10.6784 10.8217 10.6933L11.0461 13.4987ZM12.0401 13.3256C12.8337 13.1091 13.5557 12.7167 14.0983 12.0838L11.9615 10.2522C11.864 10.3659 11.6794 10.5069 11.2996 10.6104L12.0401 13.3256ZM14.1109 12.0688C14.5572 11.5333 14.877 10.9254 15.0491 10.2527L12.3226 9.55526C12.26 9.79993 12.1426 10.0347 11.9489 10.2672L14.1109 12.0688ZM15.0434 10.2742C15.1989 9.70409 15.285 9.13609 15.285 8.576H12.4707C12.4707 8.84791 12.4288 9.16524 12.3283 9.53376L15.0434 10.2742ZM15.285 8.576C15.285 8.01525 15.1987 7.45015 15.0412 6.88576L12.3305 7.64224C12.429 7.99518 12.4707 8.30475 12.4707 8.576H15.285ZM15.051 6.92272C14.8798 6.23788 14.558 5.62062 14.0983 5.08424L11.9615 6.91576C12.1417 7.12605 12.2573 7.35145 12.3207 7.60528L15.051 6.92272ZM14.1109 5.09917C13.5695 4.44955 12.8437 4.04561 12.0401 3.82644L11.2996 6.54156C11.6694 6.64239 11.8502 6.78245 11.9489 6.90083L14.1109 5.09917ZM12.0564 3.831C11.7308 3.73797 11.3923 3.68103 11.0461 3.65334L10.8217 6.45866C11.0088 6.47363 11.1609 6.50203 11.2833 6.537L12.0564 3.831ZM11.0461 3.65334C10.749 3.62957 10.4657 3.61686 10.1979 3.61686V6.43114C10.3781 6.43114 10.5854 6.43976 10.8217 6.45866L11.0461 3.65334ZM10.1979 3.61686H5.01388V6.43114H10.1979V3.61686ZM3.60673 5.024V12.128H6.42102V5.024H3.60673ZM23.7474 23.776L23.0575 25.0024L23.0666 25.0075L23.0757 25.0125L23.7474 23.776ZM21.7954 21.872L20.5607 22.547L20.5661 22.5568L20.5716 22.5666L21.7954 21.872ZM21.5074 17.04L20.1881 16.5506L21.5074 17.04ZM22.6914 15.296L23.645 16.3307L23.6458 16.33L22.6914 15.296ZM24.9154 14.016L24.431 12.6949L24.4296 12.6954L24.9154 14.016ZM27.2034 13.392L26.921 12.0135H26.921L27.2034 13.392ZM30.2114 12.88L30.4104 14.2731L30.4234 14.2711L30.2114 12.88ZM33.9074 12.32L34.5865 13.5524L33.6976 10.9286L33.9074 12.32ZM32.3394 13.184H30.9322V15.566L33.0185 14.4164L32.3394 13.184ZM27.1394 10.672L26.566 9.38695H26.566L27.1394 10.672ZM25.6834 12.32L25.2581 13.6613L26.5587 14.0737L27.011 12.7864L25.6834 12.32ZM21.7474 11.072L20.4018 10.6603L19.9943 11.9923L21.3221 12.4133L21.7474 11.072ZM24.2114 7.584L23.3719 6.4547L24.2114 7.584ZM33.2034 6.944L33.7219 5.63588V5.63588L33.2034 6.944ZM35.8914 9.376L34.6469 10.0328L34.6498 10.0382L35.8914 9.376ZM36.4994 11.296L37.8995 11.156V11.156L36.4994 11.296ZM36.5954 24V25.4071H38.0025V24H36.5954ZM32.7874 24H31.3802V25.4071H32.7874V24ZM32.7874 20.448L33.919 19.6116L31.3802 16.1769V20.448H32.7874ZM33.3314 21.184L34.4707 22.0098L35.0751 21.1758L34.463 20.3476L33.3314 21.184ZM30.5954 23.712L31.2519 24.9566L31.2569 24.954L30.5954 23.712ZM29.8434 20.64L30.4825 21.8937L30.4918 21.8888L29.8434 20.64ZM31.1554 19.664L30.1156 18.7159L30.1078 18.7244L30.1002 18.733L31.1554 19.664ZM31.8274 18.752L33.0968 19.3591L33.0973 19.3581L31.8274 18.752ZM32.2114 17.12L30.8075 17.0248L30.8067 17.0361L30.8061 17.0473L32.2114 17.12ZM32.2754 15.552L32.6167 14.1869L30.8682 13.7498V15.552H32.2754ZM33.5554 15.872L33.7848 17.2603L33.8967 14.5069L33.5554 15.872ZM30.4194 16.416L30.6597 17.8025L30.6687 17.8009L30.6776 17.7992L30.4194 16.416ZM27.1874 17.184L26.6974 15.8649L26.681 15.871L26.6648 15.8775L27.1874 17.184ZM26.1474 17.744L26.9917 18.8697L26.9988 18.8643L26.1474 17.744ZM25.5714 18.384L24.3361 17.7102L24.324 17.7322L24.3128 17.7547L25.5714 18.384ZM25.6834 20.192L24.5126 20.9725L24.5294 20.9978L24.5473 21.0222L25.6834 20.192ZM26.8994 23.0729C25.8372 23.0729 25.0303 22.8715 24.419 22.5395L23.0757 25.0125C24.1925 25.6191 25.4869 25.8871 26.8994 25.8871V23.0729ZM24.4372 22.5496C23.7887 22.1848 23.3309 21.7267 23.0191 21.1774L20.5716 22.5666C21.1558 23.5959 21.9994 24.4072 23.0575 25.0024L24.4372 22.5496ZM23.0301 21.197C22.7119 20.6151 22.5465 19.969 22.5465 19.232H19.7322C19.7322 20.415 20.0042 21.5289 20.5607 22.547L23.0301 21.197ZM22.5465 19.232C22.5465 18.5769 22.6467 18.0146 22.8267 17.5294L20.1881 16.5506C19.8774 17.3881 19.7322 18.2871 19.7322 19.232H22.5465ZM22.8267 17.5294C22.991 17.0864 23.256 16.6892 23.645 16.3307L21.7378 14.2612C21.0388 14.9054 20.5144 15.671 20.1881 16.5506L22.8267 17.5294ZM23.6458 16.33C24.0296 15.9757 24.5955 15.633 25.4011 15.3366L24.4296 12.6954C23.3792 13.0817 22.4625 13.5923 21.7369 14.262L23.6458 16.33ZM25.3998 15.3371C25.9567 15.1329 26.6484 14.942 27.4857 14.7705L26.921 12.0135C25.9877 12.2046 25.154 12.4297 24.431 12.6949L25.3998 15.3371ZM27.4857 14.7705C28.3376 14.596 29.3117 14.43 30.4104 14.273L30.0124 11.487C28.8711 11.65 27.8398 11.8253 26.921 12.0135L27.4857 14.7705ZM30.4234 14.2711C31.5425 14.1005 32.7738 13.914 34.1172 13.7114L33.6976 10.9286C32.353 11.1313 31.1202 11.3181 29.9994 11.4889L30.4234 14.2711ZM33.2283 11.0876L31.6603 11.9516L33.0185 14.4164L34.5865 13.5524L33.2283 11.0876ZM33.7465 13.184C33.7465 11.9665 33.4572 10.773 32.5874 9.92213L30.6194 11.9339C30.7309 12.043 30.9322 12.3535 30.9322 13.184H33.7465ZM32.5874 9.92213C31.7038 9.05772 30.4248 8.80086 29.1394 8.80086V11.6151C30.158 11.6151 30.5217 11.8383 30.6194 11.9339L32.5874 9.92213ZM29.1394 8.80086C28.2685 8.80086 27.4067 9.01191 26.566 9.38695L27.7127 11.957C28.2588 11.7134 28.7303 11.6151 29.1394 11.6151V8.80086ZM26.566 9.38695C25.4814 9.87085 24.7469 10.7405 24.3558 11.8536L27.011 12.7864C27.1746 12.3208 27.4106 12.0918 27.7127 11.957L26.566 9.38695ZM26.1087 10.9787L22.1727 9.73067L21.3221 12.4133L25.2581 13.6613L26.1087 10.9787ZM23.0929 11.4837C23.442 10.3429 24.0852 9.43113 25.0509 8.7133L23.3719 6.4547C21.9269 7.52887 20.9274 8.94243 20.4018 10.6603L23.0929 11.4837ZM25.0509 8.7133C25.9357 8.05554 27.2479 7.64714 29.1394 7.64714V4.83286C26.8709 4.83286 24.8977 5.32046 23.3719 6.4547L25.0509 8.7133ZM29.1394 7.64714C30.5214 7.64714 31.695 7.85975 32.6848 8.25212L33.7219 5.63588C32.3437 5.08958 30.808 4.83286 29.1394 4.83286V7.64714ZM32.6848 8.25212C33.5493 8.59478 34.1916 9.17011 34.6469 10.0328L37.1358 8.7192C36.3751 7.27789 35.2255 6.23189 33.7219 5.63588L32.6848 8.25212ZM34.6498 10.0382C34.9157 10.5368 35.0557 11.0006 35.0992 11.436L37.8995 11.156C37.8151 10.3113 37.5497 9.49524 37.133 8.71382L34.6498 10.0382ZM35.0992 11.436C35.1577 12.0205 35.1882 12.6874 35.1882 13.44H38.0025C38.0025 12.614 37.9691 11.8515 37.8995 11.156L35.0992 11.436ZM35.1882 13.44V24H38.0025V13.44H35.1882ZM36.5954 22.5929H32.7874V25.4071H36.5954V22.5929ZM34.1945 24V20.448H31.3802V24H34.1945ZM31.6558 21.2844L32.1998 22.0204L34.463 20.3476L33.919 19.6116L31.6558 21.2844ZM32.192 20.3582C31.4396 21.3964 30.6796 22.0729 29.9339 22.47L31.2569 24.954C32.4738 24.3058 33.5378 23.297 34.4707 22.0098L32.192 20.3582ZM29.9389 22.4674C29.2303 22.8412 28.2426 23.0729 26.8994 23.0729V25.8871C28.5428 25.8871 30.0191 25.6068 31.2519 24.9566L29.9389 22.4674ZM27.8274 22.4631C28.7832 22.4631 29.6889 22.2982 30.4825 21.8936L29.2043 19.3864C28.9099 19.5364 28.4716 19.6489 27.8274 19.6489V22.4631ZM30.4918 21.8888C31.1576 21.5431 31.7476 21.1196 32.2105 20.595L30.1002 18.733C29.9232 18.9337 29.6384 19.1609 29.1949 19.3912L30.4918 21.8888ZM32.1952 20.6121C32.5568 20.2154 32.8904 19.7908 33.0968 19.3591L30.5579 18.1449C30.5297 18.2039 30.4152 18.3872 30.1156 18.7159L32.1952 20.6121ZM33.0973 19.3581C33.4148 18.6929 33.5769 17.9616 33.6166 17.1927L30.8061 17.0473C30.7819 17.5157 30.688 17.8725 30.5575 18.1459L33.0973 19.3581ZM33.6153 17.2152C33.6591 16.5685 33.6825 16.0115 33.6825 15.552H30.8682C30.8682 15.9245 30.8489 16.4128 30.8075 17.0248L33.6153 17.2152ZM31.9341 16.9171L33.2141 17.2371L33.8967 14.5069L32.6167 14.1869L31.9341 16.9171ZM33.3259 14.4837C32.0306 14.6978 30.9747 14.8809 30.1612 15.0328L30.6776 17.7992C31.4641 17.6524 32.4988 17.4729 33.7848 17.2603L33.3259 14.4837ZM30.1791 15.0295C29.3651 15.1706 28.6874 15.3044 28.1561 15.4314L28.8106 18.1686C29.2606 18.0609 29.8736 17.9387 30.6597 17.8025L30.1791 15.0295ZM28.1561 15.4314C27.6241 15.5587 27.1358 15.7021 26.6974 15.8649L27.6773 18.5031C27.9857 18.3886 28.3614 18.276 28.8106 18.1686L28.1561 15.4314ZM26.6648 15.8775C26.1609 16.0791 25.6929 16.322 25.2959 16.6237L26.9988 18.8643C27.1352 18.7606 27.3605 18.6303 27.71 18.4905L26.6648 15.8775ZM25.3031 16.6183C24.9172 16.9077 24.5777 17.2672 24.3361 17.7102L26.8067 19.0578C26.8211 19.0314 26.8656 18.9643 26.9917 18.8697L25.3031 16.6183ZM24.3128 17.7547C24.0885 18.2033 23.9882 18.6832 23.9882 19.168H26.8025C26.8025 19.0768 26.8196 19.0341 26.83 19.0133L24.3128 17.7547ZM23.9882 19.168C23.9882 19.8003 24.1456 20.4221 24.5126 20.9725L26.8542 19.4115C26.8371 19.3859 26.8025 19.325 26.8025 19.168H23.9882ZM24.5473 21.0222C24.9236 21.5372 25.428 21.8994 25.9956 22.1332L27.0671 19.5308C26.9094 19.4659 26.8485 19.4015 26.8195 19.3618L24.5473 21.0222ZM25.9956 22.1332C26.5683 22.369 27.1913 22.4631 27.8274 22.4631V19.6489C27.4608 19.6489 27.2198 19.5937 27.0671 19.5308L25.9956 22.1332ZM43.5876 23.28L42.8047 24.4492L43.5876 23.28ZM40.7876 20.016L39.5193 20.6256L39.5232 20.6335L40.7876 20.016ZM40.8036 10.672L39.5431 10.0466L39.5411 10.0506L40.8036 10.672ZM43.6676 7.424L44.4291 8.60732H44.4291L43.6676 7.424ZM52.1316 7.44L52.9495 6.29496L52.1316 7.44ZM54.6756 10.704L53.3776 11.2474L54.6756 10.704ZM54.6596 20.016L53.3652 19.4641L53.3616 19.4726L54.6596 20.016ZM52.0676 23.28L52.8703 24.4358L52.0676 23.28ZM50.7876 19.952L49.9466 18.8238L49.9367 18.8313L50.7876 19.952ZM52.0516 18.112L50.7131 17.6779V17.6779L52.0516 18.112ZM52.0516 12.608L50.7131 13.0421V13.0421L52.0516 12.608ZM50.8196 10.768L49.9484 11.873L49.9586 11.881L50.8196 10.768ZM46.2276 10.832L47.0781 11.9531L47.081 11.9508L46.2276 10.832ZM44.8516 12.736L46.1677 13.234L46.1699 13.2282L44.8516 12.736ZM44.8356 18.016L43.5117 18.4926L43.5137 18.4983L44.8356 18.016ZM46.1636 19.904L45.2943 21.0105L46.1636 19.904ZM52.4356 24H51.0285V25.4071H52.4356V24ZM52.4356 12.16H53.8428V10.7529H52.4356V12.16ZM51.8916 12.16H50.4845V13.5671H51.8916V12.16ZM51.8916 0.959999V-0.447143H50.4845V0.959999H51.8916ZM56.2756 0.959999H57.6828V-0.447143H56.2756V0.959999ZM56.2756 24V25.4071H57.6828V24H56.2756ZM47.7636 23.0729C46.4225 23.0729 45.3094 22.7395 44.3706 22.1108L42.8047 24.4492C44.2552 25.4205 45.9261 25.8871 47.7636 25.8871V23.0729ZM44.3706 22.1108C43.3958 21.458 42.6224 20.5664 42.052 19.3985L39.5232 20.6335C40.2968 22.2176 41.3902 23.502 42.8047 24.4492L44.3706 22.1108ZM42.0559 19.4064C41.4974 18.2443 41.2028 16.9049 41.2028 15.36H38.3885C38.3885 17.2711 38.7552 19.0357 39.5194 20.6256L42.0559 19.4064ZM41.2028 15.36C41.2028 13.7817 41.5031 12.4373 42.0661 11.2934L39.5411 10.0506C38.7601 11.6374 38.3885 13.4183 38.3885 15.36H41.2028ZM42.0642 11.2974C42.6401 10.1364 43.4276 9.25174 44.4291 8.60732L42.9062 6.24068C41.4543 7.17492 40.3324 8.45557 39.5431 10.0466L42.0642 11.2974ZM44.4291 8.60732C45.3994 7.98295 46.5673 7.64714 47.9876 7.64714V4.83286C46.1013 4.83286 44.3892 5.28638 42.9062 6.24068L44.4291 8.60732ZM47.9876 7.64714C49.3951 7.64714 50.4757 7.98643 51.3137 8.58504L52.9495 6.29496C51.5476 5.29357 49.8654 4.83286 47.9876 4.83286V7.64714ZM51.3137 8.58504C52.2031 9.2203 52.8938 10.0917 53.3776 11.2474L55.9736 10.1606C55.3054 8.56434 54.3001 7.2597 52.9495 6.29496L51.3137 8.58504ZM53.3776 11.2474C53.8711 12.4262 54.1325 13.7893 54.1325 15.36H56.9468C56.9468 13.4747 56.6322 11.7338 55.9736 10.1606L53.3776 11.2474ZM54.1325 15.36C54.1325 16.9275 53.8668 18.2876 53.3652 19.4641L55.954 20.5679C56.6257 18.9924 56.9468 17.2485 56.9468 15.36H54.1325ZM53.3616 19.4726C52.8822 20.6179 52.1827 21.4869 51.265 22.1242L52.8703 24.4358C54.2565 23.4731 55.2851 22.1661 55.9576 20.5594L53.3616 19.4726ZM51.265 22.1242C50.3971 22.7269 49.2593 23.0729 47.7636 23.0729V25.8871C49.7026 25.8871 51.4342 25.4331 52.8703 24.4358L51.265 22.1242ZM48.4676 22.0151C49.6413 22.0151 50.746 21.7504 51.6385 21.0727L49.9367 18.8313C49.6772 19.0283 49.2353 19.2009 48.4676 19.2009V22.0151ZM51.6286 21.0802C52.4796 20.4458 53.0567 19.5741 53.3901 18.5461L50.7131 17.6779C50.5345 18.2285 50.269 18.5835 49.9466 18.8238L51.6286 21.0802ZM53.3901 18.5461C53.7016 17.5856 53.8428 16.5162 53.8428 15.36H51.0285C51.0285 16.2944 50.9136 17.0597 50.7131 17.6779L53.3901 18.5461ZM53.8428 15.36C53.8428 14.2038 53.7016 13.1344 53.3901 12.1739L50.7131 13.0421C50.9136 13.6603 51.0285 14.4256 51.0285 15.36H53.8428ZM53.3901 12.1739C53.0613 11.1599 52.5041 10.2921 51.6806 9.65501L49.9586 11.881C50.2658 12.1186 50.53 12.4774 50.7131 13.0421L53.3901 12.1739ZM51.6909 9.66302C50.825 8.98034 49.7596 8.70486 48.6276 8.70486V11.5191C49.3089 11.5191 49.7049 11.681 49.9484 11.873L51.6909 9.66302ZM48.6276 8.70486C47.42 8.70486 46.3001 9.00701 45.3743 9.71315L47.081 11.9508C47.4138 11.697 47.8939 11.5191 48.6276 11.5191V8.70486ZM45.3772 9.71094C44.5252 10.3572 43.9156 11.2199 43.5334 12.2438L46.1699 13.2282C46.385 12.6521 46.6927 12.2454 47.0781 11.9531L45.3772 9.71094ZM43.5355 12.238C43.169 13.2068 42.9965 14.253 42.9965 15.36H45.8108C45.8108 14.547 45.9369 13.8439 46.1677 13.234L43.5355 12.238ZM42.9965 15.36C42.9965 16.4704 43.1614 17.5198 43.5117 18.4926L46.1596 17.5394C45.9338 16.9122 45.8108 16.1909 45.8108 15.36H42.9965ZM43.5137 18.4983C43.8817 19.5068 44.4695 20.3624 45.2943 21.0105L47.033 18.7975C46.6631 18.5069 46.3656 18.1038 46.1575 17.5337L43.5137 18.4983ZM45.2943 21.0105C46.1934 21.7169 47.2898 22.0151 48.4676 22.0151V19.2009C47.7681 19.2009 47.3285 19.0298 47.033 18.7975L45.2943 21.0105ZM53.8428 24V12.16H51.0285V24H53.8428ZM52.4356 10.7529H51.8916V13.5671H52.4356V10.7529ZM53.2988 12.16V0.959999H50.4845V12.16H53.2988ZM51.8916 2.36714H56.2756V-0.447143H51.8916V2.36714ZM54.8685 0.959999V24H57.6828V0.959999H54.8685ZM56.2756 22.5929H52.4356V25.4071H56.2756V22.5929ZM61.0756 4.32H59.6685V5.72714H61.0756V4.32ZM61.0756 0.48V-0.927142H59.6685V0.48H61.0756ZM65.4276 0.48H66.8348V-0.927142H65.4276V0.48ZM65.4276 4.32V5.72714H66.8348V4.32H65.4276ZM61.0756 24H59.6685V25.4071H61.0756V24ZM61.0756 6.72V5.31286H59.6685V6.72H61.0756ZM65.4276 6.72H66.8348V5.31286H65.4276V6.72ZM65.4276 24V25.4071H66.8348V24H65.4276ZM62.4828 4.32V0.48H59.6685V4.32H62.4828ZM61.0756 1.88714H65.4276V-0.927142H61.0756V1.88714ZM64.0205 0.48V4.32H66.8348V0.48H64.0205ZM65.4276 2.91286H61.0756V5.72714H65.4276V2.91286ZM62.4828 24V6.72H59.6685V24H62.4828ZM61.0756 8.12714H65.4276V5.31286H61.0756V8.12714ZM64.0205 6.72V24H66.8348V6.72H64.0205ZM65.4276 22.5929H61.0756V25.4071H65.4276V22.5929ZM71.6964 23.008L70.8564 24.137L70.8666 24.1444L71.6964 23.008ZM69.2644 18.816L69.0542 17.4246L67.651 17.6366L67.8749 19.038L69.2644 18.816ZM73.7124 18.144L75.0856 17.8368L74.7992 16.5567L73.5022 16.7526L73.7124 18.144ZM74.9124 20.048L74.0743 21.1784L74.0836 21.1852L74.9124 20.048ZM79.1204 20.288L79.9273 21.4408L79.9369 21.4341L79.9463 21.4272L79.1204 20.288ZM79.5044 18.192L78.4056 19.071L78.4166 19.0849L78.428 19.0984L79.5044 18.192ZM78.3524 17.568L77.8929 18.898L77.9003 18.9005L78.3524 17.568ZM75.6004 16.768L75.9608 15.4078L75.9514 15.4053L75.6004 16.768ZM72.2244 15.552L71.5638 16.7945L71.5638 16.7945L72.2244 15.552ZM70.4004 13.952L69.1901 14.6699L69.1956 14.679L70.4004 13.952ZM70.6884 8.8L71.8426 9.60492L71.8475 9.59782L70.6884 8.8ZM73.0724 6.912L73.6251 8.20608L73.6315 8.20329L73.0724 6.912ZM80.3204 6.864L80.8407 5.55658V5.55658L80.3204 6.864ZM82.8484 8.64L81.7673 9.54086L81.7747 9.5496L82.8484 8.64ZM84.0484 11.36L84.2975 12.7449L85.6333 12.5047L85.4414 11.161L84.0484 11.36ZM79.6004 12.16L78.2027 12.3231L78.3762 13.8099L79.8495 13.5449L79.6004 12.16ZM76.8164 9.984L76.9257 8.58111L76.9178 8.5805L76.91 8.57998L76.8164 9.984ZM74.8804 10.304L74.2084 9.0676L74.197 9.07394L74.8804 10.304ZM74.4644 12.208L73.4694 13.203L73.4821 13.2158L73.4952 13.2282L74.4644 12.208ZM75.7604 12.832L75.322 14.1691L75.3284 14.1712L75.7604 12.832ZM78.7684 13.664L79.1227 12.3022L79.1147 12.3002L78.7684 13.664ZM81.9204 14.864L81.2134 16.0807L81.2231 16.0863L81.2328 16.0917L81.9204 14.864ZM83.6644 16.496L82.4401 17.1898L82.4452 17.1986L83.6644 16.496ZM76.9764 23.0729C75.0072 23.0729 73.5646 22.6298 72.5262 21.8716L70.8666 24.1444C72.5161 25.3489 74.5935 25.8871 76.9764 25.8871V23.0729ZM72.5363 21.879C71.5277 21.1287 70.8902 20.0733 70.6539 18.594L67.8749 19.038C68.2145 21.164 69.1983 22.9033 70.8564 24.137L72.5363 21.879ZM69.4746 20.2074L73.9226 19.5354L73.5022 16.7526L69.0542 17.4246L69.4746 20.2074ZM72.3392 18.4512C72.588 19.5636 73.162 20.502 74.0743 21.1784L75.7504 18.9176C75.4254 18.6767 75.1994 18.3458 75.0856 17.8368L72.3392 18.4512ZM74.0836 21.1852C75.0049 21.8567 76.109 22.1431 77.2964 22.1431V19.3289C76.5638 19.3289 76.0785 19.1567 75.7412 18.9108L74.0836 21.1852ZM77.2964 22.1431C78.2346 22.1431 79.1709 21.9703 79.9273 21.4408L78.3134 19.1352C78.2166 19.203 77.9368 19.3289 77.2964 19.3289V22.1431ZM79.9463 21.4272C80.7518 20.8433 81.1675 19.9857 81.1675 19.008H78.3532C78.3532 19.0519 78.349 19.0787 78.346 19.0919C78.3433 19.1046 78.3411 19.1082 78.3418 19.1067C78.3426 19.1051 78.3426 19.106 78.3385 19.1107C78.3341 19.1158 78.3214 19.1292 78.2944 19.1488L79.9463 21.4272ZM81.1675 19.008C81.1675 18.4325 81.0204 17.8077 80.5807 17.2856L78.428 19.0984C78.4075 19.074 78.3908 19.0489 78.3779 19.025C78.3651 19.0012 78.3577 18.9817 78.3538 18.9692C78.3462 18.9451 78.3532 18.9529 78.3532 19.008H81.1675ZM80.6032 17.313C80.351 16.9978 80.0285 16.7849 79.7586 16.6387C79.4735 16.4843 79.1484 16.3522 78.8045 16.2355L77.9003 18.9005C78.1537 18.9865 78.3193 19.0597 78.4182 19.1133C78.4661 19.1392 78.4854 19.1536 78.4852 19.1535C78.4845 19.153 78.4764 19.1468 78.4631 19.1342C78.4499 19.1218 78.4295 19.101 78.4056 19.071L80.6032 17.313ZM78.8118 16.238C78.1736 16.0175 77.2146 15.74 75.9608 15.4078L75.24 18.1282C76.4821 18.4573 77.3578 18.7132 77.8929 18.898L78.8118 16.238ZM75.9514 15.4053C74.6012 15.0576 73.5927 14.6858 72.8849 14.3095L71.5638 16.7945C72.5414 17.3142 73.7836 17.7531 75.2494 18.1307L75.9514 15.4053ZM72.8849 14.3095C72.1968 13.9437 71.8113 13.5666 71.6052 13.225L69.1956 14.679C69.7361 15.5748 70.5666 16.2643 71.5638 16.7945L72.8849 14.3095ZM71.6106 13.2341C71.3908 12.8635 71.2475 12.3658 71.2475 11.68H68.4332C68.4332 12.7649 68.6633 13.7818 69.1902 14.6699L71.6106 13.2341ZM71.2475 11.68C71.2475 10.8218 71.4617 10.1511 71.8426 9.6049L69.5342 7.9951C68.7844 9.07027 68.4332 10.3195 68.4332 11.68H71.2475ZM71.8475 9.59782C72.2445 9.021 72.8166 8.55134 73.625 8.20606L72.5197 5.61794C71.2802 6.14732 70.2629 6.93633 69.5293 8.00217L71.8475 9.59782ZM73.6315 8.20329C74.4528 7.84767 75.4707 7.64714 76.7204 7.64714V4.83286C75.1754 4.83286 73.7613 5.08033 72.5133 5.62071L73.6315 8.20329ZM76.7204 7.64714C77.9323 7.64714 78.9503 7.83325 79.8001 8.17142L80.8407 5.55658C79.5997 5.06275 78.2178 4.83286 76.7204 4.83286V7.64714ZM79.8001 8.17141C80.6553 8.51175 81.2955 8.97457 81.7674 9.54083L83.9294 7.73917C83.1213 6.76943 82.0761 6.04824 80.8407 5.55658L79.8001 8.17141ZM81.7747 9.5496C82.2456 10.1054 82.5416 10.7624 82.6554 11.559L85.4414 11.161C85.2565 9.86695 84.7525 8.71064 83.922 7.7304L81.7747 9.5496ZM83.7993 9.97508L79.3513 10.7751L79.8495 13.5449L84.2975 12.7449L83.7993 9.97508ZM80.998 11.9969C80.8826 11.0071 80.4292 10.1491 79.6323 9.52927L77.9045 11.7507C78.0675 11.8776 78.1689 12.0329 78.2027 12.3231L80.998 11.9969ZM79.6323 9.52927C78.8702 8.93652 77.9268 8.65912 76.9257 8.58111L76.7071 11.3869C77.3486 11.4369 77.7066 11.5968 77.9045 11.7507L79.6323 9.52927ZM76.91 8.57998C75.954 8.51625 75.0142 8.62973 74.2085 9.06765L75.5523 11.5403C75.7279 11.4449 76.0787 11.3451 76.7228 11.388L76.91 8.57998ZM74.197 9.07394C73.3223 9.55986 72.7532 10.3867 72.7532 11.456H75.5675C75.5675 11.4436 75.5689 11.4502 75.5635 11.4702C75.5578 11.491 75.5478 11.5152 75.5336 11.5378C75.5198 11.5599 75.5086 11.5702 75.5088 11.57C75.5099 11.569 75.5252 11.5555 75.5637 11.5341L74.197 9.07394ZM72.7532 11.456C72.7532 12.1104 72.9907 12.7243 73.4694 13.203L75.4594 11.213C75.4834 11.237 75.5167 11.2805 75.5409 11.3406C75.5648 11.3996 75.5675 11.4435 75.5675 11.456H72.7532ZM73.4952 13.2282C73.9597 13.6694 74.6691 13.955 75.322 14.1691L76.1988 11.4949C75.9096 11.4001 75.7011 11.3167 75.5588 11.2482C75.4027 11.173 75.3888 11.1453 75.4335 11.1878L73.4952 13.2282ZM75.3284 14.1712C76.0337 14.3987 77.0715 14.6849 78.422 15.0278L79.1147 12.3002C77.7772 11.9605 76.8098 11.692 76.1924 11.4928L75.3284 14.1712ZM78.4141 15.0258C79.6562 15.3489 80.5739 15.7091 81.2134 16.0807L82.6273 13.6473C81.6882 13.1016 80.5046 12.6617 79.1227 12.3022L78.4141 15.0258ZM81.2328 16.0917C81.8634 16.4449 82.232 16.8225 82.4401 17.1897L84.8886 15.8023C84.3714 14.8895 83.5773 14.1791 82.6079 13.6363L81.2328 16.0917ZM82.4452 17.1986C82.659 17.5696 82.8012 18.0775 82.8012 18.784H85.6155C85.6155 17.6985 85.3951 16.681 84.8836 15.7934L82.4452 17.1986ZM82.8012 18.784C82.8012 20.1664 82.3264 21.1352 81.415 21.8567L83.1618 24.0633C84.8103 22.7582 85.6155 20.9429 85.6155 18.784H82.8012ZM81.415 21.8567C80.4639 22.6097 79.0411 23.0729 76.9764 23.0729V25.8871C79.4343 25.8871 81.5529 25.337 83.1618 24.0633L81.415 21.8567ZM90.7794 24L89.4334 24.4105L89.7374 25.4071H90.7794V24ZM85.4994 6.688L85.51 5.2809L83.5947 5.2665L84.1534 7.0985L85.4994 6.688ZM89.7554 6.72L91.1015 6.31029L90.8004 5.32067L89.766 5.3129L89.7554 6.72ZM92.8914 17.024L91.5452 17.4337L92.8812 21.8233L94.2358 17.4394L92.8914 17.024ZM96.0754 6.72V5.31286H95.0374L94.731 6.30457L96.0754 6.72ZM99.6914 6.72L101.036 6.30457L100.729 5.31286H99.6914V6.72ZM102.875 17.024L101.531 17.4394L102.886 21.8233L104.222 17.4337L102.875 17.024ZM106.011 6.72V5.31286H104.969L104.665 6.31029L106.011 6.72ZM110.267 6.72L111.613 7.13119L112.169 5.31286H110.267V6.72ZM104.987 24V25.4071H106.029L106.333 24.4112L104.987 24ZM101.659 24L100.325 24.4473L100.647 25.4071H101.659V24ZM97.8834 12.736L99.2175 12.2887L97.8834 8.30885L96.5492 12.2887L97.8834 12.736ZM94.1074 24V25.4071H95.1198L95.4415 24.4473L94.1074 24ZM92.1253 23.5895L86.8453 6.2775L84.1534 7.0985L89.4334 24.4105L92.1253 23.5895ZM85.4888 8.0951L89.7448 8.1271L89.766 5.3129L85.51 5.2809L85.4888 8.0951ZM88.4092 7.12971L91.5452 17.4337L94.2375 16.6143L91.1015 6.31029L88.4092 7.12971ZM94.2358 17.4394L97.4198 7.13543L94.731 6.30457L91.547 16.6086L94.2358 17.4394ZM96.0754 8.12714H99.6914V5.31286H96.0754V8.12714ZM98.347 7.13543L101.531 17.4394L104.22 16.6086L101.036 6.30457L98.347 7.13543ZM104.222 17.4337L107.358 7.12971L104.665 6.31029L101.529 16.6143L104.222 17.4337ZM106.011 8.12714H110.267V5.31286H106.011V8.12714ZM108.922 6.30881L103.642 23.5888L106.333 24.4112L111.613 7.13119L108.922 6.30881ZM104.987 22.5929H101.659V25.4071H104.987V22.5929ZM102.994 23.5527L99.2175 12.2887L96.5492 13.1833L100.325 24.4473L102.994 23.5527ZM96.5492 12.2887L92.7732 23.5527L95.4415 24.4473L99.2175 13.1833L96.5492 12.2887ZM94.1074 22.5929H90.7794V25.4071H94.1074V22.5929ZM113.841 23.776L113.151 25.0024L113.16 25.0075L113.169 25.0125L113.841 23.776ZM111.889 21.872L110.654 22.547L110.66 22.5568L110.665 22.5666L111.889 21.872ZM111.601 17.04L110.282 16.5506L111.601 17.04ZM112.785 15.296L113.739 16.3307L113.74 16.33L112.785 15.296ZM115.009 14.016L114.525 12.6949L114.523 12.6954L115.009 14.016ZM117.297 13.392L117.015 12.0135L117.297 13.392ZM120.305 12.88L120.504 14.2731L120.517 14.2711L120.305 12.88ZM124.001 12.32L124.68 13.5524L123.791 10.9286L124.001 12.32ZM122.433 13.184H121.026V15.566L123.112 14.4164L122.433 13.184ZM117.233 10.672L116.66 9.38695L117.233 10.672ZM115.777 12.32L115.352 13.6613L116.652 14.0737L117.105 12.7864L115.777 12.32ZM111.841 11.072L110.496 10.6603L110.088 11.9923L111.416 12.4133L111.841 11.072ZM114.305 7.584L113.466 6.4547L114.305 7.584ZM123.297 6.944L123.816 5.63588V5.63588L123.297 6.944ZM125.985 9.376L124.741 10.0328L124.744 10.0382L125.985 9.376ZM126.593 11.296L127.993 11.156V11.156L126.593 11.296ZM126.689 24V25.4071H128.096V24H126.689ZM122.881 24H121.474V25.4071H122.881V24ZM122.881 20.448L124.013 19.6116L121.474 16.1769V20.448H122.881ZM123.425 21.184L124.564 22.0098L125.169 21.1758L124.557 20.3476L123.425 21.184ZM120.689 23.712L121.346 24.9566L121.351 24.954L120.689 23.712ZM119.937 20.64L120.576 21.8937L120.586 21.8888L119.937 20.64ZM121.249 19.664L120.209 18.7159L120.202 18.7244L120.194 18.733L121.249 19.664ZM121.921 18.752L123.191 19.3591L123.191 19.3581L121.921 18.752ZM122.305 17.12L120.901 17.0248L120.9 17.0361L120.9 17.0473L122.305 17.12ZM122.369 15.552L122.71 14.1869L120.962 13.7498V15.552H122.369ZM123.649 15.872L123.879 17.2603L123.99 14.5069L123.649 15.872ZM120.513 16.416L120.753 17.8025L120.762 17.8009L120.771 17.7992L120.513 16.416ZM117.281 17.184L116.791 15.8649L116.775 15.871L116.759 15.8775L117.281 17.184ZM116.241 17.744L117.085 18.8697L117.093 18.8643L116.241 17.744ZM115.665 18.384L114.43 17.7102L114.418 17.7322L114.407 17.7547L115.665 18.384ZM115.777 20.192L114.606 20.9725L114.623 20.9978L114.641 21.0222L115.777 20.192ZM116.993 23.0729C115.931 23.0729 115.124 22.8715 114.513 22.5395L113.169 25.0125C114.286 25.6191 115.581 25.8871 116.993 25.8871V23.0729ZM114.531 22.5496C113.882 22.1848 113.425 21.7267 113.113 21.1774L110.665 22.5666C111.25 23.5959 112.093 24.4072 113.151 25.0024L114.531 22.5496ZM113.124 21.197C112.806 20.6151 112.64 19.969 112.64 19.232H109.826C109.826 20.415 110.098 21.5289 110.654 22.547L113.124 21.197ZM112.64 19.232C112.64 18.5769 112.74 18.0146 112.92 17.5294L110.282 16.5506C109.971 17.3881 109.826 18.2871 109.826 19.232H112.64ZM112.92 17.5294C113.085 17.0864 113.35 16.6892 113.739 16.3307L111.832 14.2612C111.133 14.9054 110.608 15.671 110.282 16.5506L112.92 17.5294ZM113.74 16.33C114.123 15.9757 114.689 15.633 115.495 15.3366L114.523 12.6954C113.473 13.0817 112.556 13.5923 111.831 14.262L113.74 16.33ZM115.494 15.3371C116.05 15.1329 116.742 14.942 117.579 14.7705L117.015 12.0135C116.081 12.2046 115.248 12.4297 114.525 12.6949L115.494 15.3371ZM117.579 14.7705C118.431 14.596 119.405 14.43 120.504 14.273L120.106 11.487C118.965 11.65 117.934 11.8253 117.015 12.0135L117.579 14.7705ZM120.517 14.2711C121.636 14.1005 122.868 13.914 124.211 13.7114L123.791 10.9286C122.447 11.1313 121.214 11.3181 120.093 11.4889L120.517 14.2711ZM123.322 11.0876L121.754 11.9516L123.112 14.4164L124.68 13.5524L123.322 11.0876ZM123.84 13.184C123.84 11.9665 123.551 10.773 122.681 9.92213L120.713 11.9339C120.825 12.043 121.026 12.3535 121.026 13.184H123.84ZM122.681 9.92213C121.798 9.05772 120.519 8.80086 119.233 8.80086V11.6151C120.252 11.6151 120.615 11.8383 120.713 11.9339L122.681 9.92213ZM119.233 8.80086C118.362 8.80086 117.5 9.01191 116.66 9.38695L117.806 11.957C118.353 11.7134 118.824 11.6151 119.233 11.6151V8.80086ZM116.66 9.38695C115.575 9.87085 114.841 10.7405 114.45 11.8536L117.105 12.7864C117.268 12.3208 117.504 12.0918 117.806 11.957L116.66 9.38695ZM116.202 10.9787L112.266 9.73067L111.416 12.4133L115.352 13.6613L116.202 10.9787ZM113.187 11.4837C113.536 10.3429 114.179 9.43113 115.145 8.7133L113.466 6.4547C112.021 7.52887 111.021 8.94243 110.496 10.6603L113.187 11.4837ZM115.145 8.7133C116.029 8.05554 117.342 7.64714 119.233 7.64714V4.83286C116.965 4.83286 114.991 5.32046 113.466 6.4547L115.145 8.7133ZM119.233 7.64714C120.615 7.64714 121.789 7.85975 122.779 8.25212L123.816 5.63588C122.437 5.08958 120.902 4.83286 119.233 4.83286V7.64714ZM122.779 8.25212C123.643 8.59478 124.285 9.17011 124.741 10.0328L127.23 8.7192C126.469 7.27789 125.319 6.23189 123.816 5.63588L122.779 8.25212ZM124.744 10.0382C125.009 10.5368 125.149 11.0006 125.193 11.436L127.993 11.156C127.909 10.3113 127.643 9.49524 127.227 8.71382L124.744 10.0382ZM125.193 11.436C125.251 12.0205 125.282 12.6874 125.282 13.44H128.096C128.096 12.614 128.063 11.8515 127.993 11.156L125.193 11.436ZM125.282 13.44V24H128.096V13.44H125.282ZM126.689 22.5929H122.881V25.4071H126.689V22.5929ZM124.288 24V20.448H121.474V24H124.288ZM121.75 21.2844L122.294 22.0204L124.557 20.3476L124.013 19.6116L121.75 21.2844ZM122.286 20.3582C121.533 21.3964 120.773 22.0729 120.028 22.47L121.351 24.954C122.568 24.3058 123.632 23.297 124.564 22.0098L122.286 20.3582ZM120.033 22.4674C119.324 22.8412 118.336 23.0729 116.993 23.0729V25.8871C118.637 25.8871 120.113 25.6068 121.346 24.9566L120.033 22.4674ZM117.921 22.4631C118.877 22.4631 119.783 22.2982 120.576 21.8936L119.298 19.3864C119.004 19.5364 118.565 19.6489 117.921 19.6489V22.4631ZM120.586 21.8888C121.251 21.5431 121.841 21.1196 122.304 20.595L120.194 18.733C120.017 18.9337 119.732 19.1609 119.289 19.3912L120.586 21.8888ZM122.289 20.6121C122.651 20.2154 122.984 19.7908 123.191 19.3591L120.652 18.1449C120.623 18.2039 120.509 18.3872 120.209 18.7159L122.289 20.6121ZM123.191 19.3581C123.509 18.6929 123.671 17.9616 123.71 17.1927L120.9 17.0473C120.876 17.5157 120.782 17.8725 120.651 18.1459L123.191 19.3581ZM123.709 17.2152C123.753 16.5685 123.776 16.0115 123.776 15.552H120.962C120.962 15.9245 120.943 16.4128 120.901 17.0248L123.709 17.2152ZM122.028 16.9171L123.308 17.2371L123.99 14.5069L122.71 14.1869L122.028 16.9171ZM123.42 14.4837C122.124 14.6978 121.068 14.8809 120.255 15.0328L120.771 17.7992C121.558 17.6524 122.593 17.4729 123.879 17.2603L123.42 14.4837ZM120.273 15.0295C119.459 15.1706 118.781 15.3044 118.25 15.4314L118.904 18.1686C119.354 18.0609 119.967 17.9387 120.753 17.8025L120.273 15.0295ZM118.25 15.4314C117.718 15.5587 117.23 15.7021 116.791 15.8649L117.771 18.5031C118.079 18.3886 118.455 18.276 118.904 18.1686L118.25 15.4314ZM116.759 15.8775C116.255 16.0791 115.787 16.322 115.39 16.6237L117.093 18.8643C117.229 18.7606 117.454 18.6303 117.804 18.4905L116.759 15.8775ZM115.397 16.6183C115.011 16.9077 114.671 17.2672 114.43 17.7102L116.9 19.0578C116.915 19.0314 116.959 18.9643 117.085 18.8697L115.397 16.6183ZM114.407 17.7547C114.182 18.2033 114.082 18.6832 114.082 19.168H116.896C116.896 19.0768 116.913 19.0341 116.924 19.0133L114.407 17.7547ZM114.082 19.168C114.082 19.8003 114.239 20.4221 114.606 20.9725L116.948 19.4115C116.931 19.3859 116.896 19.325 116.896 19.168H114.082ZM114.641 21.0222C115.017 21.5372 115.522 21.8994 116.089 22.1332L117.161 19.5308C117.003 19.4659 116.942 19.4015 116.913 19.3618L114.641 21.0222ZM116.089 22.1332C116.662 22.369 117.285 22.4631 117.921 22.4631V19.6489C117.555 19.6489 117.313 19.5937 117.161 19.5308L116.089 22.1332ZM135.025 23.28L135.828 22.1242L135.025 23.28ZM132.417 20.016L131.119 20.5594L131.123 20.5679L132.417 20.016ZM132.417 10.704L131.119 10.1606L132.417 10.704ZM134.961 7.44L134.143 6.29496L134.961 7.44ZM143.425 7.424L142.664 8.60732L143.425 7.424ZM146.273 10.672L145.009 11.2895L145.015 11.3013L146.273 10.672ZM146.289 20.016L145.025 19.3985L145.021 19.4064L146.289 20.016ZM143.505 23.28L142.722 22.1108V22.1108L143.505 23.28ZM130.817 31.68H129.41V33.0871H130.817V31.68ZM130.817 6.72V5.31286H129.41V6.72H130.817ZM134.657 6.72H136.065V5.31286H134.657V6.72ZM134.657 18.56H133.25V19.9671H134.657V18.56ZM135.201 18.56H136.609V17.1529H135.201V18.56ZM135.201 31.68V33.0871H136.609V31.68H135.201ZM142.257 18.016L143.579 18.4983L143.581 18.4926L142.257 18.016ZM142.241 12.736L140.923 13.2282L140.925 13.234L142.241 12.736ZM140.849 10.832L139.987 11.9438L139.997 11.952L140.008 11.96L140.849 10.832ZM136.257 10.768L135.396 9.65496L135.386 9.66302L136.257 10.768ZM135.041 12.608L133.703 12.1739V12.1739L135.041 12.608ZM135.041 18.112L133.703 18.5461V18.5461L135.041 18.112ZM136.289 19.952L135.438 21.0728L135.448 21.0802L136.289 19.952ZM139.329 23.0729C137.834 23.0729 136.696 22.7269 135.828 22.1242L134.223 24.4358C135.659 25.4331 137.39 25.8871 139.329 25.8871V23.0729ZM135.828 22.1242C134.908 21.4854 134.202 20.6135 133.712 19.4641L131.123 20.5679C131.806 22.1705 132.839 23.4746 134.223 24.4358L135.828 22.1242ZM133.715 19.4726C133.222 18.2938 132.961 16.9307 132.961 15.36H130.146C130.146 17.2453 130.461 18.9862 131.119 20.5594L133.715 19.4726ZM132.961 15.36C132.961 13.7893 133.222 12.4262 133.715 11.2474L131.119 10.1606C130.461 11.7338 130.146 13.4747 130.146 15.36H132.961ZM133.715 11.2474C134.199 10.0917 134.89 9.2203 135.779 8.58504L134.143 6.29496C132.793 7.2597 131.788 8.56434 131.119 10.1606L133.715 11.2474ZM135.779 8.58504C136.617 7.98643 137.698 7.64714 139.105 7.64714V4.83286C137.228 4.83286 135.545 5.29357 134.143 6.29496L135.779 8.58504ZM139.105 7.64714C140.526 7.64714 141.694 7.98295 142.664 8.60732L144.187 6.24068C142.704 5.28638 140.992 4.83286 139.105 4.83286V7.64714ZM142.664 8.60732C143.663 9.25047 144.444 10.1325 145.009 11.2895L147.538 10.0545C146.759 8.45951 145.641 7.17619 144.187 6.24068L142.664 8.60732ZM145.015 11.3013C145.586 12.4433 145.89 13.785 145.89 15.36H148.705C148.705 13.415 148.326 11.6313 147.532 10.0427L145.015 11.3013ZM145.89 15.36C145.89 16.9017 145.592 18.2382 145.025 19.3985L147.554 20.6335C148.331 19.0418 148.705 17.2743 148.705 15.36H145.89ZM145.021 19.4064C144.462 20.5705 143.695 21.4594 142.722 22.1108L144.288 24.4492C145.705 23.5006 146.794 22.2135 147.558 20.6256L145.021 19.4064ZM142.722 22.1108C141.784 22.7395 140.671 23.0729 139.329 23.0729V25.8871C141.167 25.8871 142.838 25.4205 144.288 24.4492L142.722 22.1108ZM132.225 31.68V6.72H129.41V31.68H132.225ZM130.817 8.12714H134.657V5.31286H130.817V8.12714ZM133.25 6.72V18.56H136.065V6.72H133.25ZM134.657 19.9671H135.201V17.1529H134.657V19.9671ZM133.794 18.56V31.68H136.609V18.56H133.794ZM135.201 30.2729H130.817V33.0871H135.201V30.2729ZM138.625 22.0151C139.803 22.0151 140.9 21.7169 141.799 21.0105L140.06 18.7975C139.764 19.0298 139.325 19.2009 138.625 19.2009V22.0151ZM141.799 21.0105C142.624 20.3624 143.211 19.5068 143.579 18.4983L140.935 17.5337C140.727 18.1038 140.43 18.5069 140.06 18.7975L141.799 21.0105ZM143.581 18.4926C143.932 17.5198 144.097 16.4704 144.097 15.36H141.282C141.282 16.1909 141.159 16.9122 140.933 17.5394L143.581 18.4926ZM144.097 15.36C144.097 14.253 143.924 13.2068 143.557 12.238L140.925 13.234C141.156 13.8439 141.282 14.547 141.282 15.36H144.097ZM143.56 12.2438C143.175 11.2136 142.556 10.3492 141.691 9.704L140.008 11.96C140.402 12.2535 140.71 12.6584 140.923 13.2282L143.56 12.2438ZM141.712 9.72024C140.792 9.00665 139.672 8.70486 138.465 8.70486V11.5191C139.2 11.5191 139.669 11.6974 139.987 11.9438L141.712 9.72024ZM138.465 8.70486C137.332 8.70486 136.268 8.98087 135.396 9.65501L137.118 11.881C137.378 11.6805 137.786 11.5191 138.465 11.5191V8.70486ZM135.386 9.66302C134.577 10.3012 134.029 11.1669 133.703 12.1739L136.38 13.0421C136.565 12.4704 136.829 12.1094 137.129 11.873L135.386 9.66302ZM133.703 12.1739C133.391 13.1344 133.25 14.2038 133.25 15.36H136.065C136.065 14.4256 136.179 13.6603 136.38 13.0421L133.703 12.1739ZM133.25 15.36C133.25 16.5162 133.391 17.5856 133.703 18.5461L136.38 17.6779C136.179 17.0597 136.065 16.2944 136.065 15.36H133.25ZM133.703 18.5461C134.034 19.5671 134.601 20.4369 135.438 21.0727L137.14 18.8313C136.826 18.5924 136.561 18.2356 136.38 17.6779L133.703 18.5461ZM135.448 21.0802C136.347 21.7497 137.45 22.0151 138.625 22.0151V19.2009C137.859 19.2009 137.406 19.0289 137.13 18.8238L135.448 21.0802Z" fill="white" mask="url(#path-1-outside-1_2_152)"/>
</svg>